name: Times Regular 36
spacing: proportional
bounding-box: 38x36
encoding: latin-1
default-char: "default"
converter: monobit v0.48
source-name: times.font
source-path: /home/mkrueger/work/BBS/Skypix/FontCollection/Fonts/times.font
source-format: amiga-fc
shift-up: -8

0x20:
' ':
    -

    right-bearing: 8


0x21:
'!':
    ....
    ....
    .@@.
    .@@.
    @@@@
    @@@@
    @@@@
    @@@@
    @@@@
    @@@@
    @@@@
    @@@@
    @@@@
    @@@@
    .@@.
    .@@.
    .@@.
    ..@.
    ..@.
    ..@.
    ....
    ....
    ....
    ....
    .@@.
    @@@@
    @@@@
    .@@.
    ....
    ....
    ....
    ....
    ....
    ....
    ....
    ....

    left-bearing: 2


0x22:
'"':
    .........
    .........
    .@.....@.
    @@@...@@@
    @@@...@@@
    @@@...@@@
    @@@...@@@
    @@....@@.
    @.....@..
    @.....@..
    .........
    .........
    .........
    .........
    .........
    .........
    .........
    .........
    .........
    .........
    .........
    .........
    .........
    .........
    .........
    .........
    .........
    .........
    .........
    .........
    .........
    .........
    .........
    .........
    .........
    .........

    left-bearing: 2


0x23:
'#':
    ......................
    ......................
    .........@@@....@@@...
    ........@@@....@@@....
    ........@@@....@@@....
    ........@@@....@@@....
    ........@@@....@@@....
    .......@@@....@@@.....
    .......@@@....@@@.....
    .......@@@....@@@.....
    ..@@@@@@@@@@@@@@@@@@@@
    ..@@@@@@@@@@@@@@@@@@@@
    ......@@@....@@@......
    ......@@@....@@@......
    ......@@@....@@@......
    .....@@@....@@@.......
    .....@@@....@@@.......
    .....@@@....@@@.......
    @@@@@@@@@@@@@@@@@@@@..
    @@@@@@@@@@@@@@@@@@@@..
    ....@@@....@@@........
    ....@@@....@@@........
    ....@@@....@@@........
    ....@@@....@@@........
    ...@@@....@@@.........
    ...@@@....@@@.........
    ...@@@....@@@.........
    ...@@@....@@@.........
    ......................
    ......................
    ......................
    ......................
    ......................
    ......................
    ......................
    ......................

    left-bearing: -2
    right-bearing: 2


0x24:
'$':
    ......@@......
    ......@@......
    ....@@@@@@@@..
    ..@@@@@@@@@@@.
    ..@@..@@..@@@@
    .@@...@@...@@@
    .@@...@@....@@
    .@@...@@....@@
    .@@...@@......
    .@@...@@......
    .@@@..@@......
    .@@@@.@@......
    ..@@@@@@......
    ..@@@@@@@.....
    ....@@@@@@....
    ......@@@@@...
    ......@@@@@@..
    ......@@.@@@@.
    ......@@..@@@.
    ......@@...@@@
    ......@@...@@@
    ......@@....@@
    @@....@@....@@
    @@....@@...@@@
    @@@...@@...@@@
    @@@@..@@..@@@.
    .@@@@@@@@@@@@.
    ..@@@@@@@@@...
    ......@@......
    ......@@......
    ......@@......
    ......@@......
    ..............
    ..............
    ..............
    ..............

    left-bearing: 2


0x25:
'%':
    ..........................
    ..........................
    ....@@@@@@............@@..
    ...@@@@@@@@..........@@@..
    ..@@@....@@@@......@@@@@..
    .@@@......@@@@@@@@@@@@@...
    .@@........@........@@....
    @@@........@.......@@.....
    @@.........@......@@......
    @@.........@.....@@.......
    @@........@@....@@........
    @@@.......@.....@.........
    .@@@.....@@....@@.........
    .@@@@@.@@@....@@..........
    ..@@@@@@@....@@...@@@@@@..
    ....@@@@.....@...@@@@.@@@.
    ............@@..@@@....@@.
    ...........@@..@@@......@@
    ..........@@..@@@........@
    ..........@...@@@........@
    .........@@...@@.........@
    ........@@....@@.........@
    .......@@.....@@........@@
    .......@......@@@.......@.
    ......@@.......@@@.....@@.
    .....@@........@@@@@.@@@..
    ....@@..........@@@@@@@...
    ....@.............@@@@....
    ..........................
    ..........................
    ..........................
    ..........................
    ..........................
    ..........................
    ..........................
    ..........................

    left-bearing: 2


0x26:
'&':
    ........................
    ........................
    .......@@@@@............
    .....@@@..@@@...........
    .....@@....@@...........
    ....@@@.....@@..........
    ....@@......@@..........
    ....@@......@@..........
    ....@@......@@..........
    ....@@.....@@...........
    .....@@....@@...........
    .....@@...@@............
    ......@@@@@...@@@@@@@@..
    ......@@@@......@@@@....
    .....@@@@@.......@@.....
    ...@@@..@@@......@@.....
    ..@@@....@@.....@@......
    .@@@.....@@@....@.......
    .@@@......@@@..@@.......
    @@@........@@@@@........
    @@@........@@@@.........
    @@@.........@@@.........
    @@@........@@@@@........
    @@@@.......@@.@@@.......
    @@@@......@@...@@@@....@
    .@@@@....@@.....@@@@@@@@
    .@@@@@@.@@@......@@@@@@.
    ...@@@@@@..........@@...
    ........................
    ........................
    ........................
    ........................
    ........................
    ........................
    ........................
    ........................

    left-bearing: 2


0x27:
''':
    .....
    .....
    .@@..
    @@@@.
    @@@@.
    .@@@@
    ...@@
    ...@.
    ..@@.
    .@@..
    .....
    .....
    .....
    .....
    .....
    .....
    .....
    .....
    .....
    .....
    .....
    .....
    .....
    .....
    .....
    .....
    .....
    .....
    .....
    .....
    .....
    .....
    .....
    .....
    .....
    .....

    left-bearing: 2


0x28:
'(':
    ..........
    ..........
    ........@@
    ......@@@.
    .....@@...
    ....@@....
    ...@@.....
    ..@@@.....
    ..@@......
    .@@@......
    .@@@......
    .@@.......
    @@@.......
    @@@.......
    @@@.......
    @@@.......
    @@@.......
    @@@.......
    @@@.......
    @@@.......
    @@@.......
    @@@.......
    @@@.......
    @@@.......
    @@@.......
    @@@.......
    .@@.......
    .@@@......
    .@@@......
    ..@@......
    ..@@@.....
    ...@@.....
    ....@@....
    .....@@...
    ......@@@.
    ........@@

    left-bearing: 2


0x29:
')':
    ..........
    ..........
    @@........
    .@@@......
    ...@@.....
    ....@@....
    .....@@...
    .....@@@..
    ......@@..
    ......@@@.
    ......@@@.
    .......@@.
    .......@@@
    .......@@@
    .......@@@
    .......@@@
    .......@@@
    .......@@@
    .......@@@
    .......@@@
    .......@@@
    .......@@@
    .......@@@
    .......@@@
    .......@@@
    .......@@@
    .......@@.
    ......@@@.
    ......@@@.
    ......@@..
    .....@@@..
    .....@@...
    ....@@....
    ...@@.....
    .@@@......
    @@........

    left-bearing: 2


0x2a:
'*':
    ..............
    ..............
    ......@@......
    ......@@......
    @@@...@@...@@@
    @@@@..@@..@@@@
    .@@@...@..@@@.
    ...@@..@.@@...
    ....@@@@@@....
    ....@@@@@@....
    ..@@@..@.@@@..
    @@@@...@..@@@@
    @@@...@@...@@@
    @@@...@@...@@@
    ......@@......
    ......@@......
    ..............
    ..............
    ..............
    ..............
    ..............
    ..............
    ..............
    ..............
    ..............
    ..............
    ..............
    ..............
    ..............
    ..............
    ..............
    ..............
    ..............
    ..............
    ..............
    ..............

    left-bearing: 2


0x2b:
'+':
    ...............
    ...............
    ...............
    ...............
    ...............
    ...............
    ...............
    ...............
    ...............
    ...............
    ...............
    ...............
    ......@@@......
    ......@@@......
    ......@@@......
    ......@@@......
    ......@@@......
    ......@@@......
    @@@@@@@@@@@@@@@
    @@@@@@@@@@@@@@@
    ......@@@......
    ......@@@......
    ......@@@......
    ......@@@......
    ......@@@......
    ......@@@......
    ...............
    ...............
    ...............
    ...............
    ...............
    ...............
    ...............
    ...............
    ...............
    ...............

    left-bearing: 2


0x2c:
',':
    .....
    .....
    .....
    .....
    .....
    .....
    .....
    .....
    .....
    .....
    .....
    .....
    .....
    .....
    .....
    .....
    .....
    .....
    .....
    .....
    .....
    .....
    .....
    .....
    ..@@.
    .@@@@
    .@@@@
    ..@@@
    ...@@
    ...@@
    ..@@.
    .@@@.
    @@@..
    .....
    .....
    .....

    right-bearing: 2


0x2d:
'-':
    ..................
    ..................
    ..................
    ..................
    ..................
    ..................
    ..................
    ..................
    ..................
    ..................
    ..................
    ..................
    ..................
    ..................
    @@@@@@@@@@@@@@@@@@
    @@@@@@@@@@@@@@@@@@
    ..................
    ..................
    ..................
    ..................
    ..................
    ..................
    ..................
    ..................
    ..................
    ..................
    ..................
    ..................
    ..................
    ..................
    ..................
    ..................
    ..................
    ..................
    ..................
    ..................

    left-bearing: 2


0x2e:
'.':
    ....
    ....
    ....
    ....
    ....
    ....
    ....
    ....
    ....
    ....
    ....
    ....
    ....
    ....
    ....
    ....
    ....
    ....
    ....
    ....
    ....
    ....
    ....
    ....
    .@@.
    @@@@
    @@@@
    .@@.
    ....
    ....
    ....
    ....
    ....
    ....
    ....
    ....

    left-bearing: 2


0x2f:
'/':
    ..........
    ..........
    ........@@
    ........@@
    .......@@@
    .......@@.
    .......@@.
    ......@@@.
    ......@@..
    ......@@..
    .....@@@..
    .....@@...
    .....@@...
    ....@@@...
    ....@@....
    ....@@....
    ...@@@....
    ...@@.....
    ...@@.....
    ..@@@.....
    ..@@......
    ..@@......
    .@@@......
    .@@.......
    .@@.......
    @@@.......
    @@........
    @@........
    ..........
    ..........
    ..........
    ..........
    ..........
    ..........
    ..........
    ..........



0x30:
'0':
    ................
    ................
    .....@@@@@@.....
    ...@@@@..@@@@...
    ..@@@......@@@..
    ..@@........@@..
    .@@@........@@@.
    .@@..........@@.
    .@@..........@@.
    @@@..........@@@
    @@@..........@@@
    @@@..........@@@
    @@@..........@@@
    @@@..........@@@
    @@@..........@@@
    @@@..........@@@
    @@@..........@@@
    @@@..........@@@
    @@@..........@@@
    @@@..........@@@
    @@@..........@@@
    .@@..........@@.
    .@@..........@@.
    .@@@........@@@.
    ..@@........@@..
    ..@@@......@@@..
    ...@@@@..@@@@...
    .....@@@@@@.....
    ................
    ................
    ................
    ................
    ................
    ................
    ................
    ................

    right-bearing: 2


0x31:
'1':
    ...........
    ...........
    ....@@@....
    ....@@@....
    ...@@@@....
    ..@@@@@....
    @@@@@@@....
    ....@@@....
    ....@@@....
    ....@@@....
    ....@@@....
    ....@@@....
    ....@@@....
    ....@@@....
    ....@@@....
    ....@@@....
    ....@@@....
    ....@@@....
    ....@@@....
    ....@@@....
    ....@@@....
    ....@@@....
    ....@@@....
    ....@@@....
    ....@@@....
    ....@@@....
    ..@@@@@@@..
    @@@@@@@@@@@
    ...........
    ...........
    ...........
    ...........
    ...........
    ...........
    ...........
    ...........

    left-bearing: 5
    right-bearing: -3


0x32:
'2':
    ..............
    ..............
    ....@@@@@.....
    ..@@@@@@@@@...
    .@@@@..@@@@@..
    .@@......@@@..
    @@........@@@.
    @@........@@@.
    @..........@@.
    ...........@@.
    ...........@@.
    ...........@@.
    ...........@@.
    ..........@@@.
    ..........@@..
    .........@@@..
    .........@@...
    ........@@@...
    .......@@@....
    ......@@@.....
    .....@@@......
    ....@@@.......
    ...@@@........
    ..@@@........@
    .@@@........@@
    @@@@@@@@@@@@@@
    @@@@@@@@@@@@@.
    @@@@@@@@@@@@@.
    ..............
    ..............
    ..............
    ..............
    ..............
    ..............
    ..............
    ..............

    left-bearing: 2


0x33:
'3':
    ..............
    ..............
    ...@@@@@@@....
    .@@@@@@@@@@@..
    .@@@.....@@@..
    @@........@@@.
    @..........@@.
    @..........@@.
    ...........@@.
    ...........@@.
    ..........@@..
    .........@@@..
    .......@@@@...
    ....@@@@@@....
    ....@@@@@@@@..
    ........@@@@@.
    .........@@@@.
    ..........@@@@
    ...........@@@
    ...........@@@
    ...........@@@
    ...........@@@
    ...........@@@
    ...........@@.
    @@........@@@.
    @@@......@@@..
    .@@@@..@@@@...
    ..@@@@@@@.....
    ..............
    ..............
    ..............
    ..............
    ..............
    ..............
    ..............
    ..............

    left-bearing: 2


0x34:
'4':
    ................
    ................
    ..........@@@@..
    ..........@@@@..
    .........@@@@@..
    ........@@.@@@..
    .......@@..@@@..
    .......@@..@@@..
    ......@@...@@@..
    .....@@....@@@..
    .....@@....@@@..
    ....@@.....@@@..
    ....@@.....@@@..
    ...@@......@@@..
    ..@@.......@@@..
    ..@@.......@@@..
    .@@........@@@..
    .@@........@@@..
    @@.........@@@..
    @@@@@@@@@@@@@@@@
    @@@@@@@@@@@@@@@@
    @@@@@@@@@@@@@@@@
    ...........@@@..
    ...........@@@..
    ...........@@@..
    ...........@@@..
    ...........@@@..
    ...........@@@..
    ................
    ................
    ................
    ................
    ................
    ................
    ................
    ................

    right-bearing: 2


0x35:
'5':
    ..............
    ..............
    ..@@@@@@@@@@@@
    ..@@@@@@@@@@@.
    ..@@@@@@@@@@..
    .@@...........
    .@............
    .@............
    @@............
    @@............
    @@@@@.........
    @@@@@@@@......
    .@@@@@@@@@....
    .....@@@@@@@..
    ........@@@@@.
    .........@@@@.
    ..........@@@@
    ...........@@@
    ...........@@@
    ...........@@@
    ...........@@@
    ...........@@.
    ..........@@@.
    ..........@@@.
    @@.......@@@..
    @@@....@@@@...
    @@@@.@@@@@....
    .@@@@@@@......
    ..............
    ..............
    ..............
    ..............
    ..............
    ..............
    ..............
    ..............

    left-bearing: 2


0x36:
'6':
    ................
    ................
    ...........@@@@@
    ........@@@@@...
    ......@@@@......
    .....@@@........
    ....@@@.........
    ...@@@..........
    ..@@@...........
    ..@@@...........
    .@@@............
    .@@@............
    .@@@.@@@@@@.....
    @@@@@@..@@@@@...
    @@@@......@@@@..
    @@@.........@@@.
    @@@.........@@@.
    @@@..........@@@
    @@@..........@@@
    @@@..........@@@
    @@@..........@@@
    @@@..........@@@
    @@@@.........@@@
    .@@@........@@@.
    .@@@@.......@@@.
    ..@@@@.....@@@..
    ...@@@@@.@@@@...
    .....@@@@@@.....
    ................
    ................
    ................
    ................
    ................
    ................
    ................
    ................

    right-bearing: 2


0x37:
'7':
    ..............
    ..............
    ..@@@@@@@@@@@@
    .@@@@@@@@@@@@@
    .@@@@@@@@@@@@@
    @@@........@@.
    @@.........@@.
    ...........@@.
    ..........@@..
    ..........@@..
    .........@@...
    .........@@...
    ........@@@...
    ........@@....
    ........@@....
    .......@@@....
    .......@@.....
    .......@@.....
    ......@@@.....
    ......@@......
    ......@@......
    .....@@@......
    .....@@.......
    .....@@.......
    ....@@@.......
    ....@@........
    ...@@@........
    ...@@@........
    ..............
    ..............
    ..............
    ..............
    ..............
    ..............
    ..............
    ..............

    left-bearing: 2


0x38:
'8':
    ................
    ................
    .....@@@@@@.....
    ...@@@@..@@@@...
    ...@@......@@...
    ..@@@......@@@..
    ..@@........@@..
    ..@@........@@..
    ..@@........@@..
    ..@@.......@@@..
    ...@@......@@...
    ...@@@....@@@...
    ....@@@@.@@@....
    .....@@@@@@.....
    .....@@@@@@.....
    ....@@@@@@@@@...
    ...@@@...@@@@@..
    ..@@.......@@@@.
    .@@@........@@@.
    .@@..........@@@
    @@@..........@@@
    @@@..........@@@
    @@@..........@@@
    .@@..........@@.
    .@@@........@@@.
    ..@@@......@@@..
    ...@@@@..@@@@...
    .....@@@@@@.....
    ................
    ................
    ................
    ................
    ................
    ................
    ................
    ................

    right-bearing: 2


0x39:
'9':
    ................
    ................
    .....@@@@@......
    ...@@@..@@@@....
    ..@@@.....@@@...
    .@@@.......@@@..
    .@@.........@@@.
    @@@.........@@@.
    @@@..........@@@
    @@@..........@@@
    @@@..........@@@
    @@@..........@@@
    @@@..........@@@
    @@@..........@@@
    .@@@.........@@@
    .@@@.........@@@
    ..@@@.......@@@@
    ...@@@@...@@@@@.
    .....@@@@@@@@@@.
    ............@@@.
    ............@@..
    ...........@@@..
    ..........@@@...
    .........@@@....
    .......@@@@.....
    .....@@@@@......
    ...@@@@@........
    @@@@@...........
    ................
    ................
    ................
    ................
    ................
    ................
    ................
    ................

    right-bearing: 2


0x3a:
':':
    ....
    ....
    ....
    ....
    ....
    ....
    ....
    ....
    ....
    ....
    .@@.
    @@@@
    @@@@
    .@@.
    ....
    ....
    ....
    ....
    ....
    ....
    ....
    ....
    ....
    ....
    .@@.
    @@@@
    @@@@
    .@@.
    ....
    ....
    ....
    ....
    ....
    ....
    ....
    ....

    left-bearing: 2


0x3b:
';':
    .....
    .....
    .....
    .....
    .....
    .....
    .....
    .....
    .....
    .....
    ..@@.
    .@@@@
    .@@@@
    ..@@.
    .....
    .....
    .....
    .....
    .....
    .....
    .....
    .....
    .....
    .....
    ..@@.
    .@@@@
    .@@@@
    ..@@@
    ...@@
    ...@@
    ..@@.
    .@@@.
    @@@..
    .....
    .....
    .....

    right-bearing: 2


0x3c:
'<':
    .................
    .................
    .................
    .................
    .................
    .................
    .................
    .................
    .................
    .................
    ..............@@@
    ............@@@@@
    ..........@@@@@..
    ........@@@@@....
    ......@@@@@......
    ....@@@@@........
    ..@@@@@..........
    .@@@@............
    @@@..............
    @@@..............
    .@@@@............
    ..@@@@@..........
    ....@@@@@........
    ......@@@@@......
    ........@@@@@....
    ..........@@@@@..
    ............@@@@@
    ..............@@@
    .................
    .................
    .................
    .................
    .................
    .................
    .................
    .................

    left-bearing: 2


0x3d:
'=':
    ..............
    ..............
    ..............
    ..............
    ..............
    ..............
    ..............
    ..............
    ..............
    ..............
    ..............
    ..............
    ..............
    ..............
    ..............
    ..............
    @@@@@@@@@@@@@@
    @@@@@@@@@@@@@@
    ..............
    ..............
    @@@@@@@@@@@@@@
    @@@@@@@@@@@@@@
    ..............
    ..............
    ..............
    ..............
    ..............
    ..............
    ..............
    ..............
    ..............
    ..............
    ..............
    ..............
    ..............
    ..............

    left-bearing: 2


0x3e:
'>':
    .................
    .................
    .................
    .................
    .................
    .................
    .................
    .................
    .................
    .................
    @@@..............
    @@@@@............
    ..@@@@@..........
    ....@@@@@........
    ......@@@@@......
    ........@@@@@....
    ..........@@@@@..
    ............@@@@.
    ..............@@@
    ..............@@@
    ............@@@@.
    ..........@@@@@..
    ........@@@@@....
    ......@@@@@......
    ....@@@@@........
    ..@@@@@..........
    @@@@@............
    @@@..............
    .................
    .................
    .................
    .................
    .................
    .................
    .................
    .................

    left-bearing: 2


0x3f:
'?':
    ............
    ............
    ...@@@@@@...
    .@@@@..@@@@.
    @@@......@@.
    @@.......@@@
    @@........@@
    @@........@@
    @@@.......@@
    .@@......@@@
    .........@@@
    ........@@@.
    .......@@@@.
    .......@@@..
    ......@@@...
    ......@@@...
    ......@@....
    .....@@@....
    .....@@.....
    .....@@.....
    .....@......
    .....@......
    ............
    ............
    ....@@......
    ...@@@@.....
    ...@@@@.....
    ....@@......
    ............
    ............
    ............
    ............
    ............
    ............
    ............
    ............

    left-bearing: 2


0x40:
'@':
    ............................
    ............................
    ............@@@@@@@@........
    ..........@@@@@....@@@......
    ........@@@@.........@@@....
    ......@@@@.............@@...
    .....@@@@...............@@..
    ....@@@@.................@..
    ...@@@@..................@@.
    ...@@@....................@.
    ..@@@.........@@@.........@.
    ..@@@.......@@@@@@@..@@...@@
    .@@@.......@@@@@.@@@@@@...@@
    .@@@......@@@@....@@@@.....@
    .@@.......@@@......@@@.....@
    @@@......@@@.......@@......@
    @@@......@@........@@......@
    @@@.....@@@.......@@@......@
    @@@.....@@........@@......@@
    @@@.....@@........@@......@.
    @@@.....@@.......@@@.....@@.
    @@@.....@@.......@@@.....@@.
    @@@.....@@......@@@@....@@..
    .@@......@@....@@@@@@..@@@..
    .@@@.....@@@@@@@..@@@@@@@...
    .@@@.......@@@.....@@@@.....
    ..@@@.......................
    ..@@@.......................
    ...@@@......................
    ....@@@.....................
    .....@@@@..............@....
    ......@@@@@..........@@@....
    ........@@@@@@....@@@@......
    ...........@@@@@@@@.........
    ............................
    ............................

    left-bearing: 2
    right-bearing: 2


0x41:
'A':
    ..........................
    ..........................
    ............@@............
    ...........@@@............
    ...........@@@@...........
    ..........@@@@@...........
    ..........@@.@@@..........
    ..........@@.@@@..........
    .........@@...@@..........
    .........@@...@@@.........
    ........@@....@@@.........
    ........@@.....@@@........
    .......@@......@@@........
    .......@@.......@@@.......
    ......@@........@@@.......
    ......@@........@@@.......
    ......@@.........@@@......
    .....@@..........@@@......
    .....@@...........@@@.....
    .....@@@@@@@@@@@@@@@@.....
    ....@@............@@@@....
    ....@@.............@@@....
    ...@@..............@@@....
    ...@@..............@@@@...
    ..@@@...............@@@...
    ..@@@..............@@@@@..
    .@@@@@............@@@@@@@.
    @@@@@@@..........@@@@@@@@@
    ..........................
    ..........................
    ..........................
    ..........................
    ..........................
    ..........................
    ..........................
    ..........................

    left-bearing: 2


0x42:
'B':
    ....................
    ....................
    @@@@@@@@@@@@@@@.....
    .@@@@.......@@@@@...
    ..@@@.........@@@...
    ..@@@..........@@@..
    ..@@@..........@@@..
    ..@@@..........@@@..
    ..@@@..........@@@..
    ..@@@..........@@@..
    ..@@@..........@@@..
    ..@@@.........@@@...
    ..@@@.........@@@...
    ..@@@........@@@....
    ..@@@@@@@@@@@@@@....
    ..@@@@@@@@@@@@@@@@..
    ..@@@..........@@@@.
    ..@@@...........@@@.
    ..@@@............@@@
    ..@@@............@@@
    ..@@@............@@@
    ..@@@............@@@
    ..@@@............@@@
    ..@@@...........@@@.
    ..@@@...........@@@.
    ..@@@.........@@@@..
    .@@@@......@@@@@@...
    @@@@@@@@@@@@@@@.....
    ....................
    ....................
    ....................
    ....................
    ....................
    ....................
    ....................
    ....................

    left-bearing: 2


0x43:
'C':
    ......................
    ......................
    ........@@@@@@@@.....@
    ......@@@......@@@...@
    ....@@@..........@@@@@
    ...@@@............@@@@
    ..@@@..............@@@
    ..@@@...............@@
    .@@@................@@
    .@@@.................@
    @@@...................
    @@@...................
    @@@...................
    @@@...................
    @@@...................
    @@@...................
    @@@...................
    @@@...................
    @@@...................
    @@@...................
    .@@@..................
    .@@@..................
    ..@@@...............@@
    ..@@@..............@@@
    ...@@@@...........@@@.
    ....@@@@@........@@@..
    ......@@@@@....@@@....
    ........@@@@@@@@......
    ......................
    ......................
    ......................
    ......................
    ......................
    ......................
    ......................
    ......................

    left-bearing: 2
    right-bearing: -2


0x44:
'D':
    ......................
    ......................
    @@@@@@@@@@@@@@@.......
    .@@@@@......@@@@@.....
    ..@@@.........@@@@....
    ..@@@...........@@@...
    ..@@@............@@@..
    ..@@@............@@@..
    ..@@@.............@@@.
    ..@@@.............@@@.
    ..@@@..............@@@
    ..@@@..............@@@
    ..@@@..............@@@
    ..@@@..............@@@
    ..@@@..............@@@
    ..@@@..............@@@
    ..@@@..............@@@
    ..@@@..............@@@
    ..@@@..............@@@
    ..@@@..............@@@
    ..@@@.............@@@.
    ..@@@.............@@@.
    ..@@@............@@@..
    ..@@@............@@@..
    ..@@@...........@@@...
    ..@@@.........@@@@....
    .@@@@@......@@@@@.....
    @@@@@@@@@@@@@@@.......
    ......................
    ......................
    ......................
    ......................
    ......................
    ......................
    ......................
    ......................

    left-bearing: 2


0x45:
'E':
    ..................
    ..................
    @@@@@@@@@@@@@@@@@.
    .@@@@@........@@@.
    ..@@@..........@@.
    ..@@@...........@.
    ..@@@.............
    ..@@@.............
    ..@@@.............
    ..@@@.............
    ..@@@.............
    ..@@@.............
    ..@@@.........@...
    ..@@@........@@...
    ..@@@@@@@@@@@@@...
    ..@@@........@@...
    ..@@@.........@...
    ..@@@.............
    ..@@@.............
    ..@@@.............
    ..@@@.............
    ..@@@.............
    ..@@@.............
    ..@@@............@
    ..@@@...........@@
    ..@@@..........@@@
    .@@@@@........@@@.
    @@@@@@@@@@@@@@@@@.
    ..................
    ..................
    ..................
    ..................
    ..................
    ..................
    ..................
    ..................

    left-bearing: 2


0x46:
'F':
    .................
    .................
    @@@@@@@@@@@@@@@@@
    .@@@@@........@@@
    ..@@@..........@@
    ..@@@...........@
    ..@@@............
    ..@@@............
    ..@@@............
    ..@@@............
    ..@@@............
    ..@@@............
    ..@@@.........@..
    ..@@@........@@..
    ..@@@@@@@@@@@@@..
    ..@@@........@@..
    ..@@@.........@..
    ..@@@............
    ..@@@............
    ..@@@............
    ..@@@............
    ..@@@............
    ..@@@............
    ..@@@............
    ..@@@............
    ..@@@............
    .@@@@@...........
    @@@@@@@..........
    .................
    .................
    .................
    .................
    .................
    .................
    .................
    .................

    left-bearing: 2


0x47:
'G':
    ........................
    ........................
    ........@@@@@@@@.....@..
    ......@@@@@@@@@@@@...@..
    ....@@@@@.......@@@@@@..
    ...@@@@...........@@@@..
    ..@@@@.............@@@..
    ..@@@...............@@..
    .@@@@...............@@..
    .@@@.................@..
    @@@@....................
    @@@.....................
    @@@.....................
    @@@.....................
    @@@.....................
    @@@..............@@@@@@@
    @@@...............@@@@@.
    @@@................@@@..
    @@@................@@@..
    @@@@...............@@@..
    .@@@...............@@@..
    .@@@@..............@@@..
    ..@@@..............@@@..
    ..@@@@............@@@@..
    ...@@@@..........@@@@...
    ....@@@@@......@@@@@....
    ......@@@@@@@@@@@@......
    ........@@@@@@@@........
    ........................
    ........................
    ........................
    ........................
    ........................
    ........................
    ........................
    ........................

    left-bearing: 2


0x48:
'H':
    .....................
    .....................
    @@@@@@@.......@@@@@@@
    .@@@@@.........@@@@@.
    ..@@@...........@@@..
    ..@@@...........@@@..
    ..@@@...........@@@..
    ..@@@...........@@@..
    ..@@@...........@@@..
    ..@@@...........@@@..
    ..@@@...........@@@..
    ..@@@...........@@@..
    ..@@@...........@@@..
    ..@@@...........@@@..
    ..@@@@@@@@@@@@@@@@@..
    ..@@@@@@@@@@@@@@@@@..
    ..@@@...........@@@..
    ..@@@...........@@@..
    ..@@@...........@@@..
    ..@@@...........@@@..
    ..@@@...........@@@..
    ..@@@...........@@@..
    ..@@@...........@@@..
    ..@@@...........@@@..
    ..@@@...........@@@..
    ..@@@...........@@@..
    .@@@@@.........@@@@@.
    @@@@@@@.......@@@@@@@
    .....................
    .....................
    .....................
    .....................
    .....................
    .....................
    .....................
    .....................

    left-bearing: 2


0x49:
'I':
    .......
    .......
    @@@@@@@
    .@@@@@.
    ..@@@..
    ..@@@..
    ..@@@..
    ..@@@..
    ..@@@..
    ..@@@..
    ..@@@..
    ..@@@..
    ..@@@..
    ..@@@..
    ..@@@..
    ..@@@..
    ..@@@..
    ..@@@..
    ..@@@..
    ..@@@..
    ..@@@..
    ..@@@..
    ..@@@..
    ..@@@..
    ..@@@..
    ..@@@..
    .@@@@@.
    @@@@@@@
    .......
    .......
    .......
    .......
    .......
    .......
    .......
    .......

    left-bearing: 2


0x4a:
'J':
    ...........
    ...........
    ....@@@@@@@
    .....@@@@@.
    ......@@@..
    ......@@@..
    ......@@@..
    ......@@@..
    ......@@@..
    ......@@@..
    ......@@@..
    ......@@@..
    ......@@@..
    ......@@@..
    ......@@@..
    ......@@@..
    ......@@@..
    ......@@@..
    ......@@@..
    ......@@@..
    ......@@@..
    ......@@@..
    ......@@@..
    ......@@@..
    @@@@..@@@..
    @@@@..@@...
    .@@@@@@@...
    ..@@@@.....
    ...........
    ...........
    ...........
    ...........
    ...........
    ...........
    ...........
    ...........

    right-bearing: 2


0x4b:
'K':
    ......................
    ......................
    @@@@@@@.....@@@@@@@@..
    .@@@@@.......@@@@@....
    ..@@@.........@@@.....
    ..@@@........@@@......
    ..@@@.......@@@.......
    ..@@@......@@@........
    ..@@@.....@@@.........
    ..@@@....@@@..........
    ..@@@...@@@...........
    ..@@@..@@@............
    ..@@@@@@@.............
    ..@@@@@@..............
    ..@@@@@@@.............
    ..@@@@@@@@............
    ..@@@..@@@@...........
    ..@@@...@@@@..........
    ..@@@....@@@@.........
    ..@@@.....@@@@........
    ..@@@......@@@@.......
    ..@@@.......@@@@......
    ..@@@.......@@@@......
    ..@@@........@@@@.....
    ..@@@.........@@@@....
    ..@@@..........@@@@...
    .@@@@@..........@@@@..
    @@@@@@@........@@@@@@@
    ......................
    ......................
    ......................
    ......................
    ......................
    ......................
    ......................
    ......................

    left-bearing: 2


0x4c:
'L':
    ...................
    ...................
    @@@@@@@............
    .@@@@@.............
    ..@@@..............
    ..@@@..............
    ..@@@..............
    ..@@@..............
    ..@@@..............
    ..@@@..............
    ..@@@..............
    ..@@@..............
    ..@@@..............
    ..@@@..............
    ..@@@..............
    ..@@@..............
    ..@@@..............
    ..@@@..............
    ..@@@..............
    ..@@@..............
    ..@@@..............
    ..@@@..............
    ..@@@..............
    ..@@@.............@
    ..@@@............@@
    ..@@@...........@@.
    .@@@@@@@@@@@@@@@@@.
    @@@@@@@@@@@@@@@@@..
    ...................
    ...................
    ...................
    ...................
    ...................
    ...................
    ...................
    ...................

    left-bearing: 2
    right-bearing: -2


0x4d:
'M':
    ............................
    ............................
    @@@@@.................@@@@@@
    .@@@@@................@@@@@.
    ..@@@@...............@@@@@..
    ..@@@@@..............@@@@@..
    ..@.@@@.............@@@@@@..
    ..@.@@@@............@@.@@@..
    ..@..@@@...........@@@.@@@..
    ..@..@@@...........@@..@@@..
    ..@...@@@.........@@...@@@..
    ..@...@@@.........@@...@@@..
    ..@...@@@@........@@...@@@..
    ..@....@@@.......@@....@@@..
    ..@....@@@.......@@....@@@..
    ..@.....@@@.....@@@....@@@..
    ..@.....@@@.....@@.....@@@..
    ..@.....@@@.....@@.....@@@..
    ..@......@@@...@@......@@@..
    ..@......@@@...@@......@@@..
    ..@.......@@@.@@.......@@@..
    ..@.......@@@.@@.......@@@..
    ..@........@@@@........@@@..
    ..@........@@@@........@@@..
    ..@........@@@@........@@@..
    ..@.........@@.........@@@..
    .@@@........@@........@@@@@.
    @@@@@.......@@.......@@@@@@@
    ............................
    ............................
    ............................
    ............................
    ............................
    ............................
    ............................
    ............................

    left-bearing: 2


0x4e:
'N':
    ......................
    ......................
    @@@@.............@@@@@
    .@@@..............@@@.
    ..@@@..............@..
    ..@@@@.............@..
    ..@@@@@............@..
    ..@@@@@@...........@..
    ..@.@@@@@..........@..
    ..@..@@@@..........@..
    ..@...@@@@.........@..
    ..@....@@@@........@..
    ..@....@@@@@.......@..
    ..@.....@@@@@......@..
    ..@......@@@@@.....@..
    ..@.......@@@@.....@..
    ..@........@@@@....@..
    ..@.........@@@@...@..
    ..@.........@@@@@..@..
    ..@..........@@@@..@..
    ..@...........@@@@.@..
    ..@............@@@@@..
    ..@.............@@@@..
    ..@.............@@@@..
    ..@..............@@@..
    ..@...............@@..
    .@@@..............@@..
    @@@@@..............@..
    ......................
    ......................
    ......................
    ......................
    ......................
    ......................
    ......................
    ......................

    left-bearing: 2


0x4f:
'O':
    ........................
    ........................
    ........@@@@@@@@........
    ......@@@@....@@@@......
    ....@@@..........@@@....
    ...@@@............@@@...
    ..@@@..............@@@..
    ..@@@..............@@@..
    .@@@................@@@.
    .@@@................@@@.
    @@@..................@@@
    @@@..................@@@
    @@@..................@@@
    @@@..................@@@
    @@@..................@@@
    @@@..................@@@
    @@@..................@@@
    @@@..................@@@
    @@@..................@@@
    @@@..................@@@
    .@@@................@@@.
    .@@@................@@@.
    ..@@@..............@@@..
    ..@@@..............@@@..
    ...@@@............@@@...
    ....@@@..........@@@....
    ......@@@@....@@@@......
    ........@@@@@@@@........
    ........................
    ........................
    ........................
    ........................
    ........................
    ........................
    ........................
    ........................

    left-bearing: 2


0x50:
'P':
    ..................
    ..................
    @@@@@@@@@@@@@@....
    .@@@@@.....@@@@@..
    ..@@@........@@@@.
    ..@@@.........@@@.
    ..@@@..........@@@
    ..@@@..........@@@
    ..@@@..........@@@
    ..@@@..........@@@
    ..@@@..........@@@
    ..@@@..........@@.
    ..@@@.........@@@.
    ..@@@.......@@@@..
    ..@@@....@@@@@@...
    ..@@@@@@@@@@@.....
    ..@@@.............
    ..@@@.............
    ..@@@.............
    ..@@@.............
    ..@@@.............
    ..@@@.............
    ..@@@.............
    ..@@@.............
    ..@@@.............
    ..@@@.............
    .@@@@@............
    @@@@@@@...........
    ..................
    ..................
    ..................
    ..................
    ..................
    ..................
    ..................
    ..................

    left-bearing: 2
    right-bearing: -2


0x51:
'Q':
    ........................
    ........................
    ........@@@@@@@@........
    ......@@@@....@@@@......
    ....@@@..........@@@....
    ...@@@............@@@...
    ..@@@..............@@@..
    ..@@@..............@@@..
    .@@@................@@@.
    .@@@................@@@.
    @@@..................@@@
    @@@..................@@@
    @@@..................@@@
    @@@..................@@@
    @@@..................@@@
    @@@..................@@@
    @@@..................@@@
    @@@..................@@@
    @@@..................@@@
    @@@..................@@@
    .@@@................@@@.
    .@@@................@@@.
    ..@@@..............@@@..
    ..@@@..............@@@..
    ...@@@............@@@...
    ....@@@..........@@@....
    ......@@@@....@@@@......
    ........@@@@@@@@........
    ..........@@@@..........
    ...........@@@..........
    ............@@@.........
    .............@@@........
    ..............@@@.......
    ...............@@@@.....
    ................@@@@@...
    ..................@@@@@@

    left-bearing: 2


0x52:
'R':
    ......................
    ......................
    @@@@@@@@@@@@@@........
    .@@@@@.....@@@@@......
    ..@@@........@@@@.....
    ..@@@.........@@@.....
    ..@@@..........@@@....
    ..@@@..........@@@....
    ..@@@..........@@@....
    ..@@@..........@@@....
    ..@@@..........@@@....
    ..@@@..........@@.....
    ..@@@.........@@@.....
    ..@@@.......@@@@......
    ..@@@....@@@@@@.......
    ..@@@@@@@@@@@.........
    ..@@@....@@@..........
    ..@@@.....@@@.........
    ..@@@......@@@........
    ..@@@.......@@@.......
    ..@@@........@@@......
    ..@@@.........@@@.....
    ..@@@.........@@@@....
    ..@@@..........@@@@...
    ..@@@...........@@@@..
    ..@@@............@@@@.
    .@@@@@...........@@@@@
    @@@@@@@.........@@@@@@
    ......................
    ......................
    ......................
    ......................
    ......................
    ......................
    ......................
    ......................

    left-bearing: 2
    right-bearing: -2


0x53:
'S':
    ................
    ................
    ....@@@@@....@..
    ...@@...@@@..@..
    ..@@......@@@@..
    .@@........@@@..
    .@@.........@@..
    @@@..........@..
    @@@.............
    @@@.............
    @@@@............
    .@@@@...........
    .@@@@@@.........
    ..@@@@@@@.......
    ...@@@@@@@@.....
    .....@@@@@@@@...
    .......@@@@@@@..
    .........@@@@@@.
    ...........@@@@.
    ............@@@@
    ............@@@@
    .............@@@
    @............@@@
    @@..........@@@.
    @@@.........@@@.
    @@@@.......@@@..
    @..@@@...@@@....
    @....@@@@@......
    ................
    ................
    ................
    ................
    ................
    ................
    ................
    ................

    left-bearing: 2


0x54:
'T':
    ..................
    ..................
    @@@@@@@@@@@@@@@@@@
    @@@....@@@.....@@@
    @@.....@@@......@@
    @......@@@.......@
    .......@@@........
    .......@@@........
    .......@@@........
    .......@@@........
    .......@@@........
    .......@@@........
    .......@@@........
    .......@@@........
    .......@@@........
    .......@@@........
    .......@@@........
    .......@@@........
    .......@@@........
    .......@@@........
    .......@@@........
    .......@@@........
    .......@@@........
    .......@@@........
    .......@@@........
    .......@@@........
    ......@@@@@.......
    .....@@@@@@@......
    ..................
    ..................
    ..................
    ..................
    ..................
    ..................
    ..................
    ..................

    left-bearing: 2


0x55:
'U':
    ......................
    ......................
    @@@@@@@..........@@@@@
    .@@@@@............@@@.
    ..@@@..............@..
    ..@@@..............@..
    ..@@@..............@..
    ..@@@..............@..
    ..@@@..............@..
    ..@@@..............@..
    ..@@@..............@..
    ..@@@..............@..
    ..@@@..............@..
    ..@@@..............@..
    ..@@@..............@..
    ..@@@..............@..
    ..@@@..............@..
    ..@@@..............@..
    ..@@@..............@..
    ..@@@..............@..
    ..@@@..............@..
    ..@@@..............@..
    ..@@@@............@@..
    ...@@@............@...
    ...@@@@..........@@...
    ....@@@@@......@@@....
    .....@@@@@@@@@@@@.....
    .......@@@@@@@@.......
    ......................
    ......................
    ......................
    ......................
    ......................
    ......................
    ......................
    ......................

    left-bearing: 2


0x56:
'V':
    ..........................
    ..........................
    @@@@@@@@............@@@@@@
    .@@@@@@..............@@@@.
    ..@@@@................@@..
    ..@@@@................@@..
    ...@@@................@...
    ...@@@@..............@@...
    ....@@@..............@@...
    ....@@@@.............@....
    .....@@@............@@....
    .....@@@............@@....
    ......@@@...........@.....
    ......@@@..........@@.....
    ......@@@@.........@@.....
    .......@@@.........@......
    .......@@@@.......@@......
    ........@@@.......@@......
    ........@@@@......@.......
    .........@@@.....@@.......
    .........@@@@....@@.......
    .........@@@@....@........
    ..........@@@@..@@........
    ..........@@@@..@.........
    ...........@@@@@@.........
    ...........@@@@@..........
    ............@@@@..........
    ............@@@...........
    ..........................
    ..........................
    ..........................
    ..........................
    ..........................
    ..........................
    ..........................
    ..........................



0x57:
'W':
    ....................................
    ....................................
    @@@@@@@@.......@@@@@@@.......@@@@@@@
    .@@@@@@.........@@@@@.........@@@@@.
    ..@@@@...........@@@@..........@@@..
    ..@@@@...........@@@...........@@@..
    ...@@@...........@@@...........@@...
    ...@@@@...........@@...........@@...
    ....@@@...........@@...........@@...
    ....@@@@..........@@...........@....
    .....@@@..........@@@.........@@....
    .....@@@..........@@@.........@@....
    ......@@@........@@@@.........@.....
    ......@@@........@@@@........@@.....
    ......@@@@.......@@@@........@@.....
    .......@@@.......@@@@@.......@......
    .......@@@@.....@@.@@@......@@......
    ........@@@.....@@.@@@......@@......
    ........@@@@....@..@@@......@.......
    ........@@@@....@...@@@....@@.......
    .........@@@@...@...@@@....@@.......
    .........@@@@..@@...@@@....@........
    ..........@@@@.@.....@@@..@@........
    ..........@@@@.@.....@@@..@@........
    ...........@@@@@.....@@@.@@.........
    ...........@@@@@......@@@@@.........
    ............@@@.......@@@@..........
    ............@@@.......@@@@..........
    ....................................
    ....................................
    ....................................
    ....................................
    ....................................
    ....................................
    ....................................
    ....................................



0x58:
'X':
    ........................
    ........................
    @@@@@@@@..........@@@@@@
    .@@@@@..............@@@.
    ..@@@@.............@@@..
    ...@@@@...........@@@...
    ....@@@...........@@....
    .....@@@.........@@.....
    .....@@@@.......@@@.....
    ......@@@.......@@......
    .......@@@.....@@.......
    .......@@@@...@@........
    ........@@@@.@@.........
    .........@@@@@..........
    ..........@@@...........
    ..........@@@@..........
    .........@@@@@@.........
    ........@@..@@@@........
    .......@@@...@@@@.......
    .......@@.....@@@.......
    ......@@.......@@@......
    .....@@........@@@@.....
    ....@@..........@@@@....
    ...@@@..........@@@@....
    ..@@@............@@@@...
    ..@@@.............@@@@..
    .@@@@@............@@@@@.
    @@@@@@@@........@@@@@@@@
    ........................
    ........................
    ........................
    ........................
    ........................
    ........................
    ........................
    ........................



0x59:
'Y':
    ........................
    ........................
    @@@@@@@.........@@@@@@@.
    .@@@@@...........@@@@@..
    ..@@@@............@@@...
    ...@@@............@@....
    ...@@@@..........@@@....
    ....@@@..........@@.....
    .....@@@........@@......
    .....@@@........@.......
    ......@@@......@@.......
    ......@@@.....@@........
    .......@@@...@@.........
    ........@@@.@@@.........
    ........@@@@@@..........
    .........@@@@...........
    ..........@@@...........
    ..........@@@...........
    ..........@@@...........
    ..........@@@...........
    ..........@@@...........
    ..........@@@...........
    ..........@@@...........
    ..........@@@...........
    ..........@@@...........
    ..........@@@...........
    .........@@@@@..........
    ........@@@@@@@.........
    ........................
    ........................
    ........................
    ........................
    ........................
    ........................
    ........................
    ........................



0x5a:
'Z':
    ....................
    ....................
    ..@@@@@@@@@@@@@@@@@@
    ..@@@...........@@@@
    ..@@.............@@@
    ..@.............@@@@
    ................@@@.
    ...............@@@..
    ..............@@@@..
    .............@@@@...
    ............@@@@....
    ...........@@@@@....
    ...........@@@@.....
    ..........@@@@......
    .........@@@@.......
    ........@@@@........
    .......@@@@.........
    ......@@@@@.........
    ......@@@@..........
    .....@@@@...........
    ....@@@@............
    ...@@@@.............
    ..@@@@..............
    .@@@@@..............
    .@@@@..............@
    @@@@..............@@
    @@@@.............@@@
    @@@@@@@@@@@@@@@@@@@@
    ....................
    ....................
    ....................
    ....................
    ....................
    ....................
    ....................
    ....................

    left-bearing: 2


0x5b:
'[':
    ........
    ........
    @@@@@@@@
    @@@@@@@@
    @@@.....
    @@@.....
    @@@.....
    @@@.....
    @@@.....
    @@@.....
    @@@.....
    @@@.....
    @@@.....
    @@@.....
    @@@.....
    @@@.....
    @@@.....
    @@@.....
    @@@.....
    @@@.....
    @@@.....
    @@@.....
    @@@.....
    @@@.....
    @@@.....
    @@@.....
    @@@.....
    @@@.....
    @@@.....
    @@@.....
    @@@.....
    @@@.....
    @@@@@@@@
    @@@@@@@@
    ........
    ........

    left-bearing: 4
    right-bearing: -4


0x5c:
'\':
    ..........
    ..........
    @@........
    @@........
    @@@.......
    .@@.......
    .@@.......
    .@@@......
    ..@@......
    ..@@......
    ..@@@.....
    ...@@.....
    ...@@.....
    ...@@@....
    ....@@....
    ....@@....
    ....@@@...
    .....@@...
    .....@@...
    .....@@@..
    ......@@..
    ......@@..
    ......@@@.
    .......@@.
    .......@@.
    .......@@@
    ........@@
    ........@@
    ..........
    ..........
    ..........
    ..........
    ..........
    ..........
    ..........
    ..........



0x5d:
']':
    ........
    ........
    @@@@@@@@
    @@@@@@@@
    .....@@@
    .....@@@
    .....@@@
    .....@@@
    .....@@@
    .....@@@
    .....@@@
    .....@@@
    .....@@@
    .....@@@
    .....@@@
    .....@@@
    .....@@@
    .....@@@
    .....@@@
    .....@@@
    .....@@@
    .....@@@
    .....@@@
    .....@@@
    .....@@@
    .....@@@
    .....@@@
    .....@@@
    .....@@@
    .....@@@
    .....@@@
    .....@@@
    @@@@@@@@
    @@@@@@@@
    ........
    ........

    right-bearing: 4


0x5e:
'^':
    ..............
    ..............
    ......@@......
    .....@@@@.....
    .....@@@@.....
    ....@@..@@....
    ....@@..@@....
    ...@@....@@...
    ...@@....@@...
    ..@@......@@..
    ..@@......@@..
    .@@........@@.
    .@@........@@.
    @@..........@@
    @@..........@@
    @............@
    ..............
    ..............
    ..............
    ..............
    ..............
    ..............
    ..............
    ..............
    ..............
    ..............
    ..............
    ..............
    ..............
    ..............
    ..............
    ..............
    ..............
    ..............
    ..............
    ..............

    left-bearing: 2


0x5f:
'_':
    ..................
    ..................
    ..................
    ..................
    ..................
    ..................
    ..................
    ..................
    ..................
    ..................
    ..................
    ..................
    ..................
    ..................
    ..................
    ..................
    ..................
    ..................
    ..................
    ..................
    ..................
    ..................
    ..................
    ..................
    ..................
    ..................
    ..................
    ..................
    ..................
    ..................
    ..................
    ..................
    ..................
    ..................
    ..................
    @@@@@@@@@@@@@@@@@@



0x60:
'`':
    ........
    ........
    @@@.....
    @@@@....
    .@@@@...
    ...@@@..
    .....@@.
    ......@@
    ........
    ........
    ........
    ........
    ........
    ........
    ........
    ........
    ........
    ........
    ........
    ........
    ........
    ........
    ........
    ........
    ........
    ........
    ........
    ........
    ........
    ........
    ........
    ........
    ........
    ........
    ........
    ........



0x61:
'a':
    ..............
    ..............
    ..............
    ..............
    ..............
    ..............
    ..............
    ..............
    ..............
    ..............
    ....@@@@......
    ..@@@@.@@@....
    .@@@....@@@...
    .@@@.....@@...
    .@@......@@@..
    .........@@@..
    ......@@@@@@..
    ....@@@..@@@..
    ..@@@....@@@..
    .@@@.....@@@..
    .@@......@@@..
    @@@......@@@..
    @@@......@@@..
    @@@......@@@..
    @@@@....@@@@..
    @@@@@@@@@@@@..
    .@@@@@@...@@..
    ..@@@@.....@@@
    ..............
    ..............
    ..............
    ..............
    ..............
    ..............
    ..............
    ..............

    left-bearing: 2


0x62:
'b':
    ................
    ................
    @@@@@...........
    ..@@@...........
    ..@@@...........
    ..@@@...........
    ..@@@...........
    ..@@@...........
    ..@@@...........
    ..@@@...........
    ..@@@...@@@.....
    ..@@@.@@@@@@@...
    ..@@@@@....@@@..
    ..@@@@......@@@.
    ..@@@........@@.
    ..@@@........@@@
    ..@@@........@@@
    ..@@@........@@@
    ..@@@........@@@
    ..@@@........@@@
    ..@@@........@@@
    ..@@@........@@@
    ..@@@........@@@
    ..@@@.......@@@.
    ..@@@.......@@@.
    ..@@@@.....@@@..
    ..@@.@@@.@@@@...
    ..@...@@@@@.....
    ................
    ................
    ................
    ................
    ................
    ................
    ................
    ................

    right-bearing: 2


0x63:
'c':
    ..............
    ..............
    ..............
    ..............
    ..............
    ..............
    ..............
    ..............
    ..............
    ..............
    .....@@@@@@...
    ...@@@@..@@@@.
    ..@@@.....@@@@
    .@@@.......@@@
    .@@@..........
    @@@...........
    @@@...........
    @@@...........
    @@@...........
    @@@...........
    @@@...........
    @@@...........
    @@@...........
    .@@@..........
    .@@@.........@
    ..@@@......@@.
    ...@@@@@.@@@..
    .....@@@@@....
    ..............
    ..............
    ..............
    ..............
    ..............
    ..............
    ..............
    ..............

    right-bearing: 2


0x64:
'd':
    ................
    ................
    .........@@@@@..
    ...........@@@..
    ...........@@@..
    ...........@@@..
    ...........@@@..
    ...........@@@..
    ...........@@@..
    ...........@@@..
    .....@@@@..@@@..
    ...@@@@.@@@@@@..
    ..@@@.....@@@@..
    .@@@.......@@@..
    .@@........@@@..
    @@@........@@@..
    @@@........@@@..
    @@@........@@@..
    @@@........@@@..
    @@@........@@@..
    @@@........@@@..
    @@@........@@@..
    @@@........@@@..
    .@@........@@@..
    .@@@.......@@@..
    ..@@@.....@@@@..
    ...@@@@.@@@@@@..
    .....@@@@@..@@@@
    ................
    ................
    ................
    ................
    ................
    ................
    ................
    ................

    right-bearing: 2


0x65:
'e':
    ..............
    ..............
    ..............
    ..............
    ..............
    ..............
    ..............
    ..............
    ..............
    ..............
    .....@@@@@@...
    ...@@@@..@@@@.
    ..@@@......@@.
    .@@@.......@@@
    .@@@........@@
    @@@.........@@
    @@@.........@@
    @@@@@@@@@@@@@@
    @@@...........
    @@@...........
    @@@...........
    @@@...........
    @@@...........
    .@@@..........
    .@@@........@@
    ..@@@......@@.
    ...@@@@@.@@@..
    .....@@@@@@...
    ..............
    ..............
    ..............
    ..............
    ..............
    ..............
    ..............
    ..............

    right-bearing: 2


0x66:
'f':
    ............
    ............
    ......@@@@@.
    .....@@@.@@@
    ....@@@..@@@
    ...@@@....@@
    ...@@@......
    ..@@@.......
    ..@@@.......
    ..@@@.......
    ..@@@.......
    @@@@@@@@@@..
    ..@@@.......
    ..@@@.......
    ..@@@.......
    ..@@@.......
    ..@@@.......
    ..@@@.......
    ..@@@.......
    ..@@@.......
    ..@@@.......
    ..@@@.......
    ..@@@.......
    ..@@@.......
    ..@@@.......
    ..@@@.......
    ..@@@.......
    @@@@@@@.....
    ............
    ............
    ............
    ............
    ............
    ............
    ............
    ............



0x67:
'g':
    ................
    ................
    ................
    ................
    ................
    ................
    ................
    ................
    ................
    ................
    ....@@@@@@@@@@..
    ..@@@..@@@@@....
    .@@@.....@@@....
    @@@.......@@@...
    @@@........@@@..
    @@@........@@@..
    @@@........@@@..
    @@@........@@@..
    @@@@......@@@...
    .@@@.....@@@....
    ..@@@..@@@@.....
    ..@@@@@@@.......
    .@@@............
    .@@.............
    .@@@............
    .@@@@@@@@@@.....
    ..@@@@@@@@@@@...
    .@@@@@@@@@@@@@..
    @@@..........@@.
    @@@...........@@
    @@.............@
    @@............@@
    @@@...........@.
    .@@@@.......@@..
    .@@@@@@@.@@@@...
    ...@@@@@@@@.....



0x68:
'h':
    ..................
    ..................
    @@@@@.............
    ..@@@.............
    ..@@@.............
    ..@@@.............
    ..@@@.............
    ..@@@.............
    ..@@@.............
    ..@@@.............
    ..@@@.....@@......
    ..@@@...@@@@@@....
    ..@@@..@@@@@@@@...
    ..@@@.@@@.@@@@@...
    ..@@@@@.....@@@@..
    ..@@@@......@@@@..
    ..@@@@.......@@@..
    ..@@@........@@@..
    ..@@@........@@@..
    ..@@@........@@@..
    ..@@@........@@@..
    ..@@@........@@@..
    ..@@@........@@@..
    ..@@@........@@@..
    ..@@@........@@@..
    ..@@@........@@@..
    ..@@@........@@@..
    @@@@@@@....@@@@@@@
    ..................
    ..................
    ..................
    ..................
    ..................
    ..................
    ..................
    ..................

    right-bearing: 2


0x69:
'i':
    .......
    .......
    ..@@...
    .@@@@..
    .@@@@..
    ..@@...
    .......
    .......
    .......
    .......
    @@@@@..
    ..@@@..
    ..@@@..
    ..@@@..
    ..@@@..
    ..@@@..
    ..@@@..
    ..@@@..
    ..@@@..
    ..@@@..
    ..@@@..
    ..@@@..
    ..@@@..
    ..@@@..
    ..@@@..
    ..@@@..
    ..@@@..
    @@@@@@@
    .......
    .......
    .......
    .......
    .......
    .......
    .......
    .......

    right-bearing: 2


0x6a:
'j':
    ........
    ........
    .....@@.
    ....@@@@
    ....@@@@
    .....@@.
    ........
    ........
    ........
    ........
    ...@@@@@
    .....@@@
    .....@@@
    .....@@@
    .....@@@
    .....@@@
    .....@@@
    .....@@@
    .....@@@
    .....@@@
    .....@@@
    .....@@@
    .....@@@
    .....@@@
    .....@@@
    .....@@@
    .....@@@
    .....@@@
    .....@@@
    .....@@@
    .....@@@
    .....@@@
    ....@@@.
    @@@@@@@.
    @@@@@@..
    .@@@....

    left-bearing: -2
    right-bearing: 6


0x6b:
'k':
    ..................
    ..................
    @@@@@.............
    ..@@@.............
    ..@@@.............
    ..@@@.............
    ..@@@.............
    ..@@@.............
    ..@@@.............
    ..@@@.............
    ..@@@......@@@@@@.
    ..@@@.......@@@...
    ..@@@......@@@....
    ..@@@......@@.....
    ..@@@.....@@......
    ..@@@....@@.......
    ..@@@...@@........
    ..@@@..@@.........
    ..@@@.@@@.........
    ..@@@@@@@@........
    ..@@@..@@@@.......
    ..@@@...@@@@......
    ..@@@....@@@@.....
    ..@@@.....@@@@....
    ..@@@......@@@@...
    ..@@@.......@@@@..
    ..@@@........@@@@.
    @@@@@.......@@@@@@
    ..................
    ..................
    ..................
    ..................
    ..................
    ..................
    ..................
    ..................



0x6c:
'l':
    .......
    .......
    @@@@@..
    ..@@@..
    ..@@@..
    ..@@@..
    ..@@@..
    ..@@@..
    ..@@@..
    ..@@@..
    ..@@@..
    ..@@@..
    ..@@@..
    ..@@@..
    ..@@@..
    ..@@@..
    ..@@@..
    ..@@@..
    ..@@@..
    ..@@@..
    ..@@@..
    ..@@@..
    ..@@@..
    ..@@@..
    ..@@@..
    ..@@@..
    ..@@@..
    @@@@@@@
    .......
    .......
    .......
    .......
    .......
    .......
    .......
    .......

    right-bearing: 2


0x6d:
'm':
    ...........................
    ...........................
    ...........................
    ...........................
    ...........................
    ...........................
    ...........................
    ...........................
    ...........................
    ...........................
    @@@@@....@@@.......@@@.....
    ..@@@..@@@@@@....@@@@@@....
    ..@@@.@@.@@@@@..@@@.@@@@...
    ..@@@@@....@@@.@@....@@@...
    ..@@@@.....@@@@@.....@@@@..
    ..@@@@......@@@@......@@@..
    ..@@@.......@@@.......@@@..
    ..@@@.......@@@.......@@@..
    ..@@@.......@@@.......@@@..
    ..@@@.......@@@.......@@@..
    ..@@@.......@@@.......@@@..
    ..@@@.......@@@.......@@@..
    ..@@@.......@@@.......@@@..
    ..@@@.......@@@.......@@@..
    ..@@@.......@@@.......@@@..
    ..@@@.......@@@.......@@@..
    ..@@@.......@@@.......@@@..
    @@@@@@@...@@@@@@@...@@@@@@@
    ...........................
    ...........................
    ...........................
    ...........................
    ...........................
    ...........................
    ...........................
    ...........................

    right-bearing: 2


0x6e:
'n':
    .................
    .................
    .................
    .................
    .................
    .................
    .................
    .................
    .................
    .................
    @@@@@...@@@......
    ..@@@..@@@@@@....
    ..@@@.@@.@@@@@...
    ..@@@@@....@@@...
    ..@@@@.....@@@@..
    ..@@@@......@@@..
    ..@@@.......@@@..
    ..@@@.......@@@..
    ..@@@.......@@@..
    ..@@@.......@@@..
    ..@@@.......@@@..
    ..@@@.......@@@..
    ..@@@.......@@@..
    ..@@@.......@@@..
    ..@@@.......@@@..
    ..@@@.......@@@..
    ..@@@.......@@@..
    @@@@@@@...@@@@@@@
    .................
    .................
    .................
    .................
    .................
    .................
    .................
    .................

    right-bearing: 2


0x6f:
'o':
    ................
    ................
    ................
    ................
    ................
    ................
    ................
    ................
    ................
    ................
    .....@@@@@@.....
    ...@@@@..@@@@...
    ..@@@......@@@..
    .@@@........@@@.
    .@@@........@@@.
    @@@..........@@@
    @@@..........@@@
    @@@..........@@@
    @@@..........@@@
    @@@..........@@@
    @@@..........@@@
    @@@..........@@@
    @@@..........@@@
    .@@@........@@@.
    .@@@........@@@.
    ..@@@......@@@..
    ...@@@@..@@@@...
    .....@@@@@@.....
    ................
    ................
    ................
    ................
    ................
    ................
    ................
    ................

    right-bearing: 2


0x70:
'p':
    ................
    ................
    ................
    ................
    ................
    ................
    ................
    ................
    ................
    ................
    @@@@@...@@@.....
    ..@@@.@@@@@@@...
    ..@@@@@....@@@..
    ..@@@@......@@@.
    ..@@@........@@.
    ..@@@........@@@
    ..@@@........@@@
    ..@@@........@@@
    ..@@@........@@@
    ..@@@........@@@
    ..@@@........@@@
    ..@@@........@@@
    ..@@@........@@@
    ..@@@.......@@@.
    ..@@@.......@@@.
    ..@@@@.....@@@..
    ..@@@@@@.@@@@...
    ..@@@.@@@@@.....
    ..@@@...........
    ..@@@...........
    ..@@@...........
    ..@@@...........
    ..@@@...........
    ..@@@...........
    ..@@@...........
    @@@@@@@.........

    right-bearing: 2


0x71:
'q':
    ................
    ................
    ................
    ................
    ................
    ................
    ................
    ................
    ................
    ................
    .....@@@@..@@@..
    ...@@@@.@@@@@@..
    ..@@@.....@@@@..
    .@@@.......@@@..
    .@@........@@@..
    @@@........@@@..
    @@@........@@@..
    @@@........@@@..
    @@@........@@@..
    @@@........@@@..
    @@@........@@@..
    @@@........@@@..
    @@@........@@@..
    .@@........@@@..
    .@@@.......@@@..
    ..@@@.....@@@@..
    ...@@@@.@@@@@@..
    .....@@@@@.@@@..
    ...........@@@..
    ...........@@@..
    ...........@@@..
    ...........@@@..
    ...........@@@..
    ...........@@@..
    ...........@@@..
    .........@@@@@@@

    right-bearing: 2


0x72:
'r':
    ............
    ............
    ............
    ............
    ............
    ............
    ............
    ............
    ............
    ............
    @@@@@...@@@.
    ..@@@..@@@@@
    ..@@@.@@@@@@
    ..@@@.@@.@@.
    ..@@@@@.....
    ..@@@@......
    ..@@@@......
    ..@@@.......
    ..@@@.......
    ..@@@.......
    ..@@@.......
    ..@@@.......
    ..@@@.......
    ..@@@.......
    ..@@@.......
    ..@@@.......
    ..@@@.......
    @@@@@@@.....
    ............
    ............
    ............
    ............
    ............
    ............
    ............
    ............

    right-bearing: 2


0x73:
's':
    ..........
    ..........
    ..........
    ..........
    ..........
    ..........
    ..........
    ..........
    ..........
    ..........
    ..@@@@..@.
    .@@@@@@@@.
    @@@...@@@.
    @@.....@@.
    @@......@.
    @@@.......
    @@@@......
    .@@@@@....
    .@@@@@@@..
    ..@@@@@@@.
    ....@@@@@.
    ......@@@@
    .......@@@
    @.......@@
    @@......@@
    @@@@...@@.
    @@@@@@@@@.
    @...@@@...
    ..........
    ..........
    ..........
    ..........
    ..........
    ..........
    ..........
    ..........

    right-bearing: 2


0x74:
't':
    ............
    ............
    ............
    ............
    ............
    ............
    ....@.......
    ...@@.......
    ..@@@.......
    ..@@@.......
    ..@@@.......
    @@@@@@@@@@..
    ..@@@.......
    ..@@@.......
    ..@@@.......
    ..@@@.......
    ..@@@.......
    ..@@@.......
    ..@@@.......
    ..@@@.......
    ..@@@.......
    ..@@@.......
    ..@@@.......
    ..@@@.......
    ..@@@@....@@
    ...@@@...@@.
    ...@@@@@@@..
    .....@@@@...
    ............
    ............
    ............
    ............
    ............
    ............
    ............
    ............



0x75:
'u':
    .................
    .................
    .................
    .................
    .................
    .................
    .................
    .................
    .................
    .................
    @@@@@.....@@@@@..
    ..@@@.......@@@..
    ..@@@.......@@@..
    ..@@@.......@@@..
    ..@@@.......@@@..
    ..@@@.......@@@..
    ..@@@.......@@@..
    ..@@@.......@@@..
    ..@@@.......@@@..
    ..@@@.......@@@..
    ..@@@.......@@@..
    ..@@@.......@@@..
    ..@@@.......@@@..
    ..@@@.......@@@..
    ..@@@@.....@@@@..
    ...@@@@...@@@@@..
    ...@@@@@@@@.@@@..
    .....@@@@@..@@@@@
    .................
    .................
    .................
    .................
    .................
    .................
    .................
    .................

    left-bearing: -2
    right-bearing: 4


0x76:
'v':
    ..................
    ..................
    ..................
    ..................
    ..................
    ..................
    ..................
    ..................
    ..................
    ..................
    @@@@@........@@@@@
    .@@@..........@@@.
    .@@@..........@@..
    ..@@@.........@@..
    ..@@@........@@...
    ...@@@.......@@...
    ...@@@.......@@...
    ....@@@.....@@....
    ....@@@.....@@....
    ....@@@.....@@....
    .....@@@...@@.....
    .....@@@...@@.....
    ......@@@.@@......
    ......@@@.@@......
    .......@@@@.......
    .......@@@@.......
    ........@@........
    ........@@........
    ..................
    ..................
    ..................
    ..................
    ..................
    ..................
    ..................
    ..................

    left-bearing: -2
    right-bearing: 4


0x77:
'w':
    ..........................
    ..........................
    ..........................
    ..........................
    ..........................
    ..........................
    ..........................
    ..........................
    ..........................
    ..........................
    @@@@@.....@@@@@......@@@@@
    .@@@.......@@@........@@@.
    .@@@.......@@@........@@..
    ..@@@.......@@........@@..
    ..@@@.......@@.......@@...
    ...@@@......@@@......@@...
    ...@@@......@@@......@@...
    ....@@@.....@@@.....@@....
    ....@@@....@@@@.....@@....
    ....@@@....@@@@@....@@....
    .....@@@...@@.@@...@@.....
    .....@@@..@@..@@...@@.....
    ......@@@.@@..@@@.@@......
    ......@@@.@@...@@.@@......
    .......@@@@....@@@@.......
    .......@@@@.....@@@.......
    ........@@......@@........
    ........@@......@@........
    ..........................
    ..........................
    ..........................
    ..........................
    ..........................
    ..........................
    ..........................
    ..........................

    left-bearing: -2
    right-bearing: 2


0x78:
'x':
    ..................
    ..................
    ..................
    ..................
    ..................
    ..................
    ..................
    ..................
    ..................
    ..................
    @@@@@@.......@@@@@
    .@@@@.........@@@.
    ..@@@.........@@@.
    ...@@@........@@..
    ....@@@......@@...
    ....@@@.....@@....
    .....@@@...@@.....
    ......@@@.@@......
    .......@@@@.......
    .......@@@@.......
    .......@@@@@......
    ......@@.@@@......
    .....@@...@@@.....
    ....@@.....@@@....
    ...@@.......@@@...
    ..@@.........@@@..
    .@@@.........@@@@.
    @@@@@.......@@@@@@
    ..................
    ..................
    ..................
    ..................
    ..................
    ..................
    ..................
    ..................



0x79:
'y':
    ................
    ................
    ................
    ................
    ................
    ................
    ................
    ................
    ................
    ................
    @@@@@......@@@@@
    .@@@........@@@.
    .@@@........@@@.
    ..@@@.......@@@.
    ..@@@.......@@..
    ..@@@.......@@..
    ...@@@......@@..
    ...@@@.....@@...
    ....@@@....@@...
    ....@@@....@@...
    ....@@@...@@....
    .....@@@..@@....
    .....@@@..@@....
    ......@@.@@.....
    ......@@@@@.....
    .......@@@@.....
    .......@@@......
    ........@@......
    .......@@.......
    .......@@.......
    ......@@........
    ......@@........
    .....@@.........
    @@@@@@@.........
    @@@@@@..........
    .@@@............

    right-bearing: 2


0x7a:
'z':
    ..............
    ..............
    ..............
    ..............
    ..............
    ..............
    ..............
    ..............
    ..............
    ..............
    @@@@@@@@@@@@@@
    @@@.........@@
    @@.........@@@
    @.........@@@.
    .........@@@..
    .........@@@..
    ........@@@...
    .......@@@....
    ......@@@.....
    .....@@@......
    ....@@@@......
    ....@@@.......
    ...@@@........
    ..@@@.........
    .@@@.........@
    @@@.........@@
    @@.........@@@
    @@@@@@@@@@@@@@
    ..............
    ..............
    ..............
    ..............
    ..............
    ..............
    ..............
    ..............

    right-bearing: 2


0x7b:
'{':
    .............
    .............
    ..........@@@
    ........@@...
    ......@@@....
    .....@@@.....
    .....@@......
    ....@@@......
    ....@@@......
    ....@@@......
    ....@@@......
    ....@@@......
    ....@@@......
    ....@@@......
    ...@@@.......
    ...@@@.......
    ..@@@........
    .@@..........
    @@...........
    @@...........
    .@@..........
    ..@@@........
    ...@@@.......
    ...@@@.......
    ....@@@......
    ....@@@......
    ....@@@......
    ....@@@......
    ....@@@......
    ....@@@......
    ....@@@......
    .....@@......
    .....@@@.....
    ......@@@....
    ........@@...
    ..........@@@

    left-bearing: 2


0x7c:
'|':
    ..
    ..
    @@
    @@
    @@
    @@
    @@
    @@
    @@
    @@
    @@
    @@
    @@
    @@
    @@
    @@
    @@
    @@
    @@
    @@
    @@
    @@
    @@
    @@
    @@
    @@
    @@
    @@
    @@
    @@
    @@
    @@
    @@
    @@
    @@
    @@

    left-bearing: 2


0x7d:
'}':
    .............
    .............
    @@@..........
    ...@@........
    ....@@@......
    .....@@@.....
    ......@@.....
    ......@@@....
    ......@@@....
    ......@@@....
    ......@@@....
    ......@@@....
    ......@@@....
    ......@@@....
    .......@@@...
    .......@@@...
    ........@@@..
    ..........@@.
    ...........@@
    ...........@@
    ..........@@.
    ........@@@..
    .......@@@...
    .......@@@...
    ......@@@....
    ......@@@....
    ......@@@....
    ......@@@....
    ......@@@....
    ......@@@....
    ......@@@....
    ......@@.....
    .....@@@.....
    ....@@@......
    ...@@........
    @@@..........

    left-bearing: 2
    right-bearing: 1


0x7e:
'~':
    ..................
    ..................
    ..................
    ..................
    ..................
    ..................
    ..................
    ..................
    ..................
    ..................
    ..................
    ..................
    ..................
    ..................
    ..................
    ....@@@...........
    ..@@@@@@@.......@@
    .@@@@.@@@@.....@@@
    @@@.....@@@@.@@@@.
    @@.......@@@@@@@..
    ...........@@@....
    ..................
    ..................
    ..................
    ..................
    ..................
    ..................
    ..................
    ..................
    ..................
    ..................
    ..................
    ..................
    ..................
    ..................
    ..................

    left-bearing: 2


0x7f:
    ......................
    ......................
    @@@@@@@@@@@@@@@@@@@@@@
    @@@@@@@@@@@@@@@@@@@@@@
    @@@@..............@@@@
    @@@@..............@@@@
    @@@@..............@@@@
    @@@@..............@@@@
    @@@@..............@@@@
    @@@@..............@@@@
    @@@@..............@@@@
    @@@@..............@@@@
    @@@@..............@@@@
    @@@@..............@@@@
    @@@@..............@@@@
    @@@@..............@@@@
    @@@@..............@@@@
    @@@@..............@@@@
    @@@@..............@@@@
    @@@@..............@@@@
    @@@@..............@@@@
    @@@@..............@@@@
    @@@@..............@@@@
    @@@@..............@@@@
    @@@@..............@@@@
    @@@@..............@@@@
    @@@@..............@@@@
    @@@@..............@@@@
    @@@@..............@@@@
    @@@@..............@@@@
    @@@@..............@@@@
    @@@@..............@@@@
    @@@@@@@@@@@@@@@@@@@@@@
    @@@@@@@@@@@@@@@@@@@@@@
    ......................
    ......................

    left-bearing: 2


0x80:
    ......................
    ......................
    @@@@@@@@@@@@@@@@@@@@@@
    @@@@@@@@@@@@@@@@@@@@@@
    @@@@..............@@@@
    @@@@..............@@@@
    @@@@..............@@@@
    @@@@..............@@@@
    @@@@..............@@@@
    @@@@..............@@@@
    @@@@..............@@@@
    @@@@..............@@@@
    @@@@..............@@@@
    @@@@..............@@@@
    @@@@..............@@@@
    @@@@..............@@@@
    @@@@..............@@@@
    @@@@..............@@@@
    @@@@..............@@@@
    @@@@..............@@@@
    @@@@..............@@@@
    @@@@..............@@@@
    @@@@..............@@@@
    @@@@..............@@@@
    @@@@..............@@@@
    @@@@..............@@@@
    @@@@..............@@@@
    @@@@..............@@@@
    @@@@..............@@@@
    @@@@..............@@@@
    @@@@..............@@@@
    @@@@..............@@@@
    @@@@@@@@@@@@@@@@@@@@@@
    @@@@@@@@@@@@@@@@@@@@@@
    ......................
    ......................

    left-bearing: 2


0x81:
    ......................
    ......................
    @@@@@@@@@@@@@@@@@@@@@@
    @@@@@@@@@@@@@@@@@@@@@@
    @@@@..............@@@@
    @@@@..............@@@@
    @@@@..............@@@@
    @@@@..............@@@@
    @@@@..............@@@@
    @@@@..............@@@@
    @@@@..............@@@@
    @@@@..............@@@@
    @@@@..............@@@@
    @@@@..............@@@@
    @@@@..............@@@@
    @@@@..............@@@@
    @@@@..............@@@@
    @@@@..............@@@@
    @@@@..............@@@@
    @@@@..............@@@@
    @@@@..............@@@@
    @@@@..............@@@@
    @@@@..............@@@@
    @@@@..............@@@@
    @@@@..............@@@@
    @@@@..............@@@@
    @@@@..............@@@@
    @@@@..............@@@@
    @@@@..............@@@@
    @@@@..............@@@@
    @@@@..............@@@@
    @@@@..............@@@@
    @@@@@@@@@@@@@@@@@@@@@@
    @@@@@@@@@@@@@@@@@@@@@@
    ......................
    ......................

    left-bearing: 2


0x82:
    ......................
    ......................
    @@@@@@@@@@@@@@@@@@@@@@
    @@@@@@@@@@@@@@@@@@@@@@
    @@@@..............@@@@
    @@@@..............@@@@
    @@@@..............@@@@
    @@@@..............@@@@
    @@@@..............@@@@
    @@@@..............@@@@
    @@@@..............@@@@
    @@@@..............@@@@
    @@@@..............@@@@
    @@@@..............@@@@
    @@@@..............@@@@
    @@@@..............@@@@
    @@@@..............@@@@
    @@@@..............@@@@
    @@@@..............@@@@
    @@@@..............@@@@
    @@@@..............@@@@
    @@@@..............@@@@
    @@@@..............@@@@
    @@@@..............@@@@
    @@@@..............@@@@
    @@@@..............@@@@
    @@@@..............@@@@
    @@@@..............@@@@
    @@@@..............@@@@
    @@@@..............@@@@
    @@@@..............@@@@
    @@@@..............@@@@
    @@@@@@@@@@@@@@@@@@@@@@
    @@@@@@@@@@@@@@@@@@@@@@
    ......................
    ......................

    left-bearing: 2


0x83:
    ......................
    ......................
    @@@@@@@@@@@@@@@@@@@@@@
    @@@@@@@@@@@@@@@@@@@@@@
    @@@@..............@@@@
    @@@@..............@@@@
    @@@@..............@@@@
    @@@@..............@@@@
    @@@@..............@@@@
    @@@@..............@@@@
    @@@@..............@@@@
    @@@@..............@@@@
    @@@@..............@@@@
    @@@@..............@@@@
    @@@@..............@@@@
    @@@@..............@@@@
    @@@@..............@@@@
    @@@@..............@@@@
    @@@@..............@@@@
    @@@@..............@@@@
    @@@@..............@@@@
    @@@@..............@@@@
    @@@@..............@@@@
    @@@@..............@@@@
    @@@@..............@@@@
    @@@@..............@@@@
    @@@@..............@@@@
    @@@@..............@@@@
    @@@@..............@@@@
    @@@@..............@@@@
    @@@@..............@@@@
    @@@@..............@@@@
    @@@@@@@@@@@@@@@@@@@@@@
    @@@@@@@@@@@@@@@@@@@@@@
    ......................
    ......................

    left-bearing: 2


0x84:
    ......................
    ......................
    @@@@@@@@@@@@@@@@@@@@@@
    @@@@@@@@@@@@@@@@@@@@@@
    @@@@..............@@@@
    @@@@..............@@@@
    @@@@..............@@@@
    @@@@..............@@@@
    @@@@..............@@@@
    @@@@..............@@@@
    @@@@..............@@@@
    @@@@..............@@@@
    @@@@..............@@@@
    @@@@..............@@@@
    @@@@..............@@@@
    @@@@..............@@@@
    @@@@..............@@@@
    @@@@..............@@@@
    @@@@..............@@@@
    @@@@..............@@@@
    @@@@..............@@@@
    @@@@..............@@@@
    @@@@..............@@@@
    @@@@..............@@@@
    @@@@..............@@@@
    @@@@..............@@@@
    @@@@..............@@@@
    @@@@..............@@@@
    @@@@..............@@@@
    @@@@..............@@@@
    @@@@..............@@@@
    @@@@..............@@@@
    @@@@@@@@@@@@@@@@@@@@@@
    @@@@@@@@@@@@@@@@@@@@@@
    ......................
    ......................

    left-bearing: 2


0x85:
    ......................
    ......................
    @@@@@@@@@@@@@@@@@@@@@@
    @@@@@@@@@@@@@@@@@@@@@@
    @@@@..............@@@@
    @@@@..............@@@@
    @@@@..............@@@@
    @@@@..............@@@@
    @@@@..............@@@@
    @@@@..............@@@@
    @@@@..............@@@@
    @@@@..............@@@@
    @@@@..............@@@@
    @@@@..............@@@@
    @@@@..............@@@@
    @@@@..............@@@@
    @@@@..............@@@@
    @@@@..............@@@@
    @@@@..............@@@@
    @@@@..............@@@@
    @@@@..............@@@@
    @@@@..............@@@@
    @@@@..............@@@@
    @@@@..............@@@@
    @@@@..............@@@@
    @@@@..............@@@@
    @@@@..............@@@@
    @@@@..............@@@@
    @@@@..............@@@@
    @@@@..............@@@@
    @@@@..............@@@@
    @@@@..............@@@@
    @@@@@@@@@@@@@@@@@@@@@@
    @@@@@@@@@@@@@@@@@@@@@@
    ......................
    ......................

    left-bearing: 2


0x86:
    ......................
    ......................
    @@@@@@@@@@@@@@@@@@@@@@
    @@@@@@@@@@@@@@@@@@@@@@
    @@@@..............@@@@
    @@@@..............@@@@
    @@@@..............@@@@
    @@@@..............@@@@
    @@@@..............@@@@
    @@@@..............@@@@
    @@@@..............@@@@
    @@@@..............@@@@
    @@@@..............@@@@
    @@@@..............@@@@
    @@@@..............@@@@
    @@@@..............@@@@
    @@@@..............@@@@
    @@@@..............@@@@
    @@@@..............@@@@
    @@@@..............@@@@
    @@@@..............@@@@
    @@@@..............@@@@
    @@@@..............@@@@
    @@@@..............@@@@
    @@@@..............@@@@
    @@@@..............@@@@
    @@@@..............@@@@
    @@@@..............@@@@
    @@@@..............@@@@
    @@@@..............@@@@
    @@@@..............@@@@
    @@@@..............@@@@
    @@@@@@@@@@@@@@@@@@@@@@
    @@@@@@@@@@@@@@@@@@@@@@
    ......................
    ......................

    left-bearing: 2


0x87:
    ......................
    ......................
    @@@@@@@@@@@@@@@@@@@@@@
    @@@@@@@@@@@@@@@@@@@@@@
    @@@@..............@@@@
    @@@@..............@@@@
    @@@@..............@@@@
    @@@@..............@@@@
    @@@@..............@@@@
    @@@@..............@@@@
    @@@@..............@@@@
    @@@@..............@@@@
    @@@@..............@@@@
    @@@@..............@@@@
    @@@@..............@@@@
    @@@@..............@@@@
    @@@@..............@@@@
    @@@@..............@@@@
    @@@@..............@@@@
    @@@@..............@@@@
    @@@@..............@@@@
    @@@@..............@@@@
    @@@@..............@@@@
    @@@@..............@@@@
    @@@@..............@@@@
    @@@@..............@@@@
    @@@@..............@@@@
    @@@@..............@@@@
    @@@@..............@@@@
    @@@@..............@@@@
    @@@@..............@@@@
    @@@@..............@@@@
    @@@@@@@@@@@@@@@@@@@@@@
    @@@@@@@@@@@@@@@@@@@@@@
    ......................
    ......................

    left-bearing: 2


0x88:
    ......................
    ......................
    @@@@@@@@@@@@@@@@@@@@@@
    @@@@@@@@@@@@@@@@@@@@@@
    @@@@..............@@@@
    @@@@..............@@@@
    @@@@..............@@@@
    @@@@..............@@@@
    @@@@..............@@@@
    @@@@..............@@@@
    @@@@..............@@@@
    @@@@..............@@@@
    @@@@..............@@@@
    @@@@..............@@@@
    @@@@..............@@@@
    @@@@..............@@@@
    @@@@..............@@@@
    @@@@..............@@@@
    @@@@..............@@@@
    @@@@..............@@@@
    @@@@..............@@@@
    @@@@..............@@@@
    @@@@..............@@@@
    @@@@..............@@@@
    @@@@..............@@@@
    @@@@..............@@@@
    @@@@..............@@@@
    @@@@..............@@@@
    @@@@..............@@@@
    @@@@..............@@@@
    @@@@..............@@@@
    @@@@..............@@@@
    @@@@@@@@@@@@@@@@@@@@@@
    @@@@@@@@@@@@@@@@@@@@@@
    ......................
    ......................

    left-bearing: 2


0x89:
    ......................
    ......................
    @@@@@@@@@@@@@@@@@@@@@@
    @@@@@@@@@@@@@@@@@@@@@@
    @@@@..............@@@@
    @@@@..............@@@@
    @@@@..............@@@@
    @@@@..............@@@@
    @@@@..............@@@@
    @@@@..............@@@@
    @@@@..............@@@@
    @@@@..............@@@@
    @@@@..............@@@@
    @@@@..............@@@@
    @@@@..............@@@@
    @@@@..............@@@@
    @@@@..............@@@@
    @@@@..............@@@@
    @@@@..............@@@@
    @@@@..............@@@@
    @@@@..............@@@@
    @@@@..............@@@@
    @@@@..............@@@@
    @@@@..............@@@@
    @@@@..............@@@@
    @@@@..............@@@@
    @@@@..............@@@@
    @@@@..............@@@@
    @@@@..............@@@@
    @@@@..............@@@@
    @@@@..............@@@@
    @@@@..............@@@@
    @@@@@@@@@@@@@@@@@@@@@@
    @@@@@@@@@@@@@@@@@@@@@@
    ......................
    ......................

    left-bearing: 2


0x8a:
    ......................
    ......................
    @@@@@@@@@@@@@@@@@@@@@@
    @@@@@@@@@@@@@@@@@@@@@@
    @@@@..............@@@@
    @@@@..............@@@@
    @@@@..............@@@@
    @@@@..............@@@@
    @@@@..............@@@@
    @@@@..............@@@@
    @@@@..............@@@@
    @@@@..............@@@@
    @@@@..............@@@@
    @@@@..............@@@@
    @@@@..............@@@@
    @@@@..............@@@@
    @@@@..............@@@@
    @@@@..............@@@@
    @@@@..............@@@@
    @@@@..............@@@@
    @@@@..............@@@@
    @@@@..............@@@@
    @@@@..............@@@@
    @@@@..............@@@@
    @@@@..............@@@@
    @@@@..............@@@@
    @@@@..............@@@@
    @@@@..............@@@@
    @@@@..............@@@@
    @@@@..............@@@@
    @@@@..............@@@@
    @@@@..............@@@@
    @@@@@@@@@@@@@@@@@@@@@@
    @@@@@@@@@@@@@@@@@@@@@@
    ......................
    ......................

    left-bearing: 2


0x8b:
    ......................
    ......................
    @@@@@@@@@@@@@@@@@@@@@@
    @@@@@@@@@@@@@@@@@@@@@@
    @@@@..............@@@@
    @@@@..............@@@@
    @@@@..............@@@@
    @@@@..............@@@@
    @@@@..............@@@@
    @@@@..............@@@@
    @@@@..............@@@@
    @@@@..............@@@@
    @@@@..............@@@@
    @@@@..............@@@@
    @@@@..............@@@@
    @@@@..............@@@@
    @@@@..............@@@@
    @@@@..............@@@@
    @@@@..............@@@@
    @@@@..............@@@@
    @@@@..............@@@@
    @@@@..............@@@@
    @@@@..............@@@@
    @@@@..............@@@@
    @@@@..............@@@@
    @@@@..............@@@@
    @@@@..............@@@@
    @@@@..............@@@@
    @@@@..............@@@@
    @@@@..............@@@@
    @@@@..............@@@@
    @@@@..............@@@@
    @@@@@@@@@@@@@@@@@@@@@@
    @@@@@@@@@@@@@@@@@@@@@@
    ......................
    ......................

    left-bearing: 2


0x8c:
    ......................
    ......................
    @@@@@@@@@@@@@@@@@@@@@@
    @@@@@@@@@@@@@@@@@@@@@@
    @@@@..............@@@@
    @@@@..............@@@@
    @@@@..............@@@@
    @@@@..............@@@@
    @@@@..............@@@@
    @@@@..............@@@@
    @@@@..............@@@@
    @@@@..............@@@@
    @@@@..............@@@@
    @@@@..............@@@@
    @@@@..............@@@@
    @@@@..............@@@@
    @@@@..............@@@@
    @@@@..............@@@@
    @@@@..............@@@@
    @@@@..............@@@@
    @@@@..............@@@@
    @@@@..............@@@@
    @@@@..............@@@@
    @@@@..............@@@@
    @@@@..............@@@@
    @@@@..............@@@@
    @@@@..............@@@@
    @@@@..............@@@@
    @@@@..............@@@@
    @@@@..............@@@@
    @@@@..............@@@@
    @@@@..............@@@@
    @@@@@@@@@@@@@@@@@@@@@@
    @@@@@@@@@@@@@@@@@@@@@@
    ......................
    ......................

    left-bearing: 2


0x8d:
    ......................
    ......................
    @@@@@@@@@@@@@@@@@@@@@@
    @@@@@@@@@@@@@@@@@@@@@@
    @@@@..............@@@@
    @@@@..............@@@@
    @@@@..............@@@@
    @@@@..............@@@@
    @@@@..............@@@@
    @@@@..............@@@@
    @@@@..............@@@@
    @@@@..............@@@@
    @@@@..............@@@@
    @@@@..............@@@@
    @@@@..............@@@@
    @@@@..............@@@@
    @@@@..............@@@@
    @@@@..............@@@@
    @@@@..............@@@@
    @@@@..............@@@@
    @@@@..............@@@@
    @@@@..............@@@@
    @@@@..............@@@@
    @@@@..............@@@@
    @@@@..............@@@@
    @@@@..............@@@@
    @@@@..............@@@@
    @@@@..............@@@@
    @@@@..............@@@@
    @@@@..............@@@@
    @@@@..............@@@@
    @@@@..............@@@@
    @@@@@@@@@@@@@@@@@@@@@@
    @@@@@@@@@@@@@@@@@@@@@@
    ......................
    ......................

    left-bearing: 2


0x8e:
    ......................
    ......................
    @@@@@@@@@@@@@@@@@@@@@@
    @@@@@@@@@@@@@@@@@@@@@@
    @@@@..............@@@@
    @@@@..............@@@@
    @@@@..............@@@@
    @@@@..............@@@@
    @@@@..............@@@@
    @@@@..............@@@@
    @@@@..............@@@@
    @@@@..............@@@@
    @@@@..............@@@@
    @@@@..............@@@@
    @@@@..............@@@@
    @@@@..............@@@@
    @@@@..............@@@@
    @@@@..............@@@@
    @@@@..............@@@@
    @@@@..............@@@@
    @@@@..............@@@@
    @@@@..............@@@@
    @@@@..............@@@@
    @@@@..............@@@@
    @@@@..............@@@@
    @@@@..............@@@@
    @@@@..............@@@@
    @@@@..............@@@@
    @@@@..............@@@@
    @@@@..............@@@@
    @@@@..............@@@@
    @@@@..............@@@@
    @@@@@@@@@@@@@@@@@@@@@@
    @@@@@@@@@@@@@@@@@@@@@@
    ......................
    ......................

    left-bearing: 2


0x8f:
    ......................
    ......................
    @@@@@@@@@@@@@@@@@@@@@@
    @@@@@@@@@@@@@@@@@@@@@@
    @@@@..............@@@@
    @@@@..............@@@@
    @@@@..............@@@@
    @@@@..............@@@@
    @@@@..............@@@@
    @@@@..............@@@@
    @@@@..............@@@@
    @@@@..............@@@@
    @@@@..............@@@@
    @@@@..............@@@@
    @@@@..............@@@@
    @@@@..............@@@@
    @@@@..............@@@@
    @@@@..............@@@@
    @@@@..............@@@@
    @@@@..............@@@@
    @@@@..............@@@@
    @@@@..............@@@@
    @@@@..............@@@@
    @@@@..............@@@@
    @@@@..............@@@@
    @@@@..............@@@@
    @@@@..............@@@@
    @@@@..............@@@@
    @@@@..............@@@@
    @@@@..............@@@@
    @@@@..............@@@@
    @@@@..............@@@@
    @@@@@@@@@@@@@@@@@@@@@@
    @@@@@@@@@@@@@@@@@@@@@@
    ......................
    ......................

    left-bearing: 2


0x90:
    ......................
    ......................
    @@@@@@@@@@@@@@@@@@@@@@
    @@@@@@@@@@@@@@@@@@@@@@
    @@@@..............@@@@
    @@@@..............@@@@
    @@@@..............@@@@
    @@@@..............@@@@
    @@@@..............@@@@
    @@@@..............@@@@
    @@@@..............@@@@
    @@@@..............@@@@
    @@@@..............@@@@
    @@@@..............@@@@
    @@@@..............@@@@
    @@@@..............@@@@
    @@@@..............@@@@
    @@@@..............@@@@
    @@@@..............@@@@
    @@@@..............@@@@
    @@@@..............@@@@
    @@@@..............@@@@
    @@@@..............@@@@
    @@@@..............@@@@
    @@@@..............@@@@
    @@@@..............@@@@
    @@@@..............@@@@
    @@@@..............@@@@
    @@@@..............@@@@
    @@@@..............@@@@
    @@@@..............@@@@
    @@@@..............@@@@
    @@@@@@@@@@@@@@@@@@@@@@
    @@@@@@@@@@@@@@@@@@@@@@
    ......................
    ......................

    left-bearing: 2


0x91:
    ......................
    ......................
    @@@@@@@@@@@@@@@@@@@@@@
    @@@@@@@@@@@@@@@@@@@@@@
    @@@@..............@@@@
    @@@@..............@@@@
    @@@@..............@@@@
    @@@@..............@@@@
    @@@@..............@@@@
    @@@@..............@@@@
    @@@@..............@@@@
    @@@@..............@@@@
    @@@@..............@@@@
    @@@@..............@@@@
    @@@@..............@@@@
    @@@@..............@@@@
    @@@@..............@@@@
    @@@@..............@@@@
    @@@@..............@@@@
    @@@@..............@@@@
    @@@@..............@@@@
    @@@@..............@@@@
    @@@@..............@@@@
    @@@@..............@@@@
    @@@@..............@@@@
    @@@@..............@@@@
    @@@@..............@@@@
    @@@@..............@@@@
    @@@@..............@@@@
    @@@@..............@@@@
    @@@@..............@@@@
    @@@@..............@@@@
    @@@@@@@@@@@@@@@@@@@@@@
    @@@@@@@@@@@@@@@@@@@@@@
    ......................
    ......................

    left-bearing: 2


0x92:
    ......................
    ......................
    @@@@@@@@@@@@@@@@@@@@@@
    @@@@@@@@@@@@@@@@@@@@@@
    @@@@..............@@@@
    @@@@..............@@@@
    @@@@..............@@@@
    @@@@..............@@@@
    @@@@..............@@@@
    @@@@..............@@@@
    @@@@..............@@@@
    @@@@..............@@@@
    @@@@..............@@@@
    @@@@..............@@@@
    @@@@..............@@@@
    @@@@..............@@@@
    @@@@..............@@@@
    @@@@..............@@@@
    @@@@..............@@@@
    @@@@..............@@@@
    @@@@..............@@@@
    @@@@..............@@@@
    @@@@..............@@@@
    @@@@..............@@@@
    @@@@..............@@@@
    @@@@..............@@@@
    @@@@..............@@@@
    @@@@..............@@@@
    @@@@..............@@@@
    @@@@..............@@@@
    @@@@..............@@@@
    @@@@..............@@@@
    @@@@@@@@@@@@@@@@@@@@@@
    @@@@@@@@@@@@@@@@@@@@@@
    ......................
    ......................

    left-bearing: 2


0x93:
    ......................
    ......................
    @@@@@@@@@@@@@@@@@@@@@@
    @@@@@@@@@@@@@@@@@@@@@@
    @@@@..............@@@@
    @@@@..............@@@@
    @@@@..............@@@@
    @@@@..............@@@@
    @@@@..............@@@@
    @@@@..............@@@@
    @@@@..............@@@@
    @@@@..............@@@@
    @@@@..............@@@@
    @@@@..............@@@@
    @@@@..............@@@@
    @@@@..............@@@@
    @@@@..............@@@@
    @@@@..............@@@@
    @@@@..............@@@@
    @@@@..............@@@@
    @@@@..............@@@@
    @@@@..............@@@@
    @@@@..............@@@@
    @@@@..............@@@@
    @@@@..............@@@@
    @@@@..............@@@@
    @@@@..............@@@@
    @@@@..............@@@@
    @@@@..............@@@@
    @@@@..............@@@@
    @@@@..............@@@@
    @@@@..............@@@@
    @@@@@@@@@@@@@@@@@@@@@@
    @@@@@@@@@@@@@@@@@@@@@@
    ......................
    ......................

    left-bearing: 2


0x94:
    ......................
    ......................
    @@@@@@@@@@@@@@@@@@@@@@
    @@@@@@@@@@@@@@@@@@@@@@
    @@@@..............@@@@
    @@@@..............@@@@
    @@@@..............@@@@
    @@@@..............@@@@
    @@@@..............@@@@
    @@@@..............@@@@
    @@@@..............@@@@
    @@@@..............@@@@
    @@@@..............@@@@
    @@@@..............@@@@
    @@@@..............@@@@
    @@@@..............@@@@
    @@@@..............@@@@
    @@@@..............@@@@
    @@@@..............@@@@
    @@@@..............@@@@
    @@@@..............@@@@
    @@@@..............@@@@
    @@@@..............@@@@
    @@@@..............@@@@
    @@@@..............@@@@
    @@@@..............@@@@
    @@@@..............@@@@
    @@@@..............@@@@
    @@@@..............@@@@
    @@@@..............@@@@
    @@@@..............@@@@
    @@@@..............@@@@
    @@@@@@@@@@@@@@@@@@@@@@
    @@@@@@@@@@@@@@@@@@@@@@
    ......................
    ......................

    left-bearing: 2


0x95:
    ......................
    ......................
    @@@@@@@@@@@@@@@@@@@@@@
    @@@@@@@@@@@@@@@@@@@@@@
    @@@@..............@@@@
    @@@@..............@@@@
    @@@@..............@@@@
    @@@@..............@@@@
    @@@@..............@@@@
    @@@@..............@@@@
    @@@@..............@@@@
    @@@@..............@@@@
    @@@@..............@@@@
    @@@@..............@@@@
    @@@@..............@@@@
    @@@@..............@@@@
    @@@@..............@@@@
    @@@@..............@@@@
    @@@@..............@@@@
    @@@@..............@@@@
    @@@@..............@@@@
    @@@@..............@@@@
    @@@@..............@@@@
    @@@@..............@@@@
    @@@@..............@@@@
    @@@@..............@@@@
    @@@@..............@@@@
    @@@@..............@@@@
    @@@@..............@@@@
    @@@@..............@@@@
    @@@@..............@@@@
    @@@@..............@@@@
    @@@@@@@@@@@@@@@@@@@@@@
    @@@@@@@@@@@@@@@@@@@@@@
    ......................
    ......................

    left-bearing: 2


0x96:
    ......................
    ......................
    @@@@@@@@@@@@@@@@@@@@@@
    @@@@@@@@@@@@@@@@@@@@@@
    @@@@..............@@@@
    @@@@..............@@@@
    @@@@..............@@@@
    @@@@..............@@@@
    @@@@..............@@@@
    @@@@..............@@@@
    @@@@..............@@@@
    @@@@..............@@@@
    @@@@..............@@@@
    @@@@..............@@@@
    @@@@..............@@@@
    @@@@..............@@@@
    @@@@..............@@@@
    @@@@..............@@@@
    @@@@..............@@@@
    @@@@..............@@@@
    @@@@..............@@@@
    @@@@..............@@@@
    @@@@..............@@@@
    @@@@..............@@@@
    @@@@..............@@@@
    @@@@..............@@@@
    @@@@..............@@@@
    @@@@..............@@@@
    @@@@..............@@@@
    @@@@..............@@@@
    @@@@..............@@@@
    @@@@..............@@@@
    @@@@@@@@@@@@@@@@@@@@@@
    @@@@@@@@@@@@@@@@@@@@@@
    ......................
    ......................

    left-bearing: 2


0x97:
    ......................
    ......................
    @@@@@@@@@@@@@@@@@@@@@@
    @@@@@@@@@@@@@@@@@@@@@@
    @@@@..............@@@@
    @@@@..............@@@@
    @@@@..............@@@@
    @@@@..............@@@@
    @@@@..............@@@@
    @@@@..............@@@@
    @@@@..............@@@@
    @@@@..............@@@@
    @@@@..............@@@@
    @@@@..............@@@@
    @@@@..............@@@@
    @@@@..............@@@@
    @@@@..............@@@@
    @@@@..............@@@@
    @@@@..............@@@@
    @@@@..............@@@@
    @@@@..............@@@@
    @@@@..............@@@@
    @@@@..............@@@@
    @@@@..............@@@@
    @@@@..............@@@@
    @@@@..............@@@@
    @@@@..............@@@@
    @@@@..............@@@@
    @@@@..............@@@@
    @@@@..............@@@@
    @@@@..............@@@@
    @@@@..............@@@@
    @@@@@@@@@@@@@@@@@@@@@@
    @@@@@@@@@@@@@@@@@@@@@@
    ......................
    ......................

    left-bearing: 2


0x98:
    ......................
    ......................
    @@@@@@@@@@@@@@@@@@@@@@
    @@@@@@@@@@@@@@@@@@@@@@
    @@@@..............@@@@
    @@@@..............@@@@
    @@@@..............@@@@
    @@@@..............@@@@
    @@@@..............@@@@
    @@@@..............@@@@
    @@@@..............@@@@
    @@@@..............@@@@
    @@@@..............@@@@
    @@@@..............@@@@
    @@@@..............@@@@
    @@@@..............@@@@
    @@@@..............@@@@
    @@@@..............@@@@
    @@@@..............@@@@
    @@@@..............@@@@
    @@@@..............@@@@
    @@@@..............@@@@
    @@@@..............@@@@
    @@@@..............@@@@
    @@@@..............@@@@
    @@@@..............@@@@
    @@@@..............@@@@
    @@@@..............@@@@
    @@@@..............@@@@
    @@@@..............@@@@
    @@@@..............@@@@
    @@@@..............@@@@
    @@@@@@@@@@@@@@@@@@@@@@
    @@@@@@@@@@@@@@@@@@@@@@
    ......................
    ......................

    left-bearing: 2


0x99:
    ......................
    ......................
    @@@@@@@@@@@@@@@@@@@@@@
    @@@@@@@@@@@@@@@@@@@@@@
    @@@@..............@@@@
    @@@@..............@@@@
    @@@@..............@@@@
    @@@@..............@@@@
    @@@@..............@@@@
    @@@@..............@@@@
    @@@@..............@@@@
    @@@@..............@@@@
    @@@@..............@@@@
    @@@@..............@@@@
    @@@@..............@@@@
    @@@@..............@@@@
    @@@@..............@@@@
    @@@@..............@@@@
    @@@@..............@@@@
    @@@@..............@@@@
    @@@@..............@@@@
    @@@@..............@@@@
    @@@@..............@@@@
    @@@@..............@@@@
    @@@@..............@@@@
    @@@@..............@@@@
    @@@@..............@@@@
    @@@@..............@@@@
    @@@@..............@@@@
    @@@@..............@@@@
    @@@@..............@@@@
    @@@@..............@@@@
    @@@@@@@@@@@@@@@@@@@@@@
    @@@@@@@@@@@@@@@@@@@@@@
    ......................
    ......................

    left-bearing: 2


0x9a:
    ......................
    ......................
    @@@@@@@@@@@@@@@@@@@@@@
    @@@@@@@@@@@@@@@@@@@@@@
    @@@@..............@@@@
    @@@@..............@@@@
    @@@@..............@@@@
    @@@@..............@@@@
    @@@@..............@@@@
    @@@@..............@@@@
    @@@@..............@@@@
    @@@@..............@@@@
    @@@@..............@@@@
    @@@@..............@@@@
    @@@@..............@@@@
    @@@@..............@@@@
    @@@@..............@@@@
    @@@@..............@@@@
    @@@@..............@@@@
    @@@@..............@@@@
    @@@@..............@@@@
    @@@@..............@@@@
    @@@@..............@@@@
    @@@@..............@@@@
    @@@@..............@@@@
    @@@@..............@@@@
    @@@@..............@@@@
    @@@@..............@@@@
    @@@@..............@@@@
    @@@@..............@@@@
    @@@@..............@@@@
    @@@@..............@@@@
    @@@@@@@@@@@@@@@@@@@@@@
    @@@@@@@@@@@@@@@@@@@@@@
    ......................
    ......................

    left-bearing: 2


0x9b:
    ......................
    ......................
    @@@@@@@@@@@@@@@@@@@@@@
    @@@@@@@@@@@@@@@@@@@@@@
    @@@@..............@@@@
    @@@@..............@@@@
    @@@@..............@@@@
    @@@@..............@@@@
    @@@@..............@@@@
    @@@@..............@@@@
    @@@@..............@@@@
    @@@@..............@@@@
    @@@@..............@@@@
    @@@@..............@@@@
    @@@@..............@@@@
    @@@@..............@@@@
    @@@@..............@@@@
    @@@@..............@@@@
    @@@@..............@@@@
    @@@@..............@@@@
    @@@@..............@@@@
    @@@@..............@@@@
    @@@@..............@@@@
    @@@@..............@@@@
    @@@@..............@@@@
    @@@@..............@@@@
    @@@@..............@@@@
    @@@@..............@@@@
    @@@@..............@@@@
    @@@@..............@@@@
    @@@@..............@@@@
    @@@@..............@@@@
    @@@@@@@@@@@@@@@@@@@@@@
    @@@@@@@@@@@@@@@@@@@@@@
    ......................
    ......................

    left-bearing: 2


0x9c:
    ......................
    ......................
    @@@@@@@@@@@@@@@@@@@@@@
    @@@@@@@@@@@@@@@@@@@@@@
    @@@@..............@@@@
    @@@@..............@@@@
    @@@@..............@@@@
    @@@@..............@@@@
    @@@@..............@@@@
    @@@@..............@@@@
    @@@@..............@@@@
    @@@@..............@@@@
    @@@@..............@@@@
    @@@@..............@@@@
    @@@@..............@@@@
    @@@@..............@@@@
    @@@@..............@@@@
    @@@@..............@@@@
    @@@@..............@@@@
    @@@@..............@@@@
    @@@@..............@@@@
    @@@@..............@@@@
    @@@@..............@@@@
    @@@@..............@@@@
    @@@@..............@@@@
    @@@@..............@@@@
    @@@@..............@@@@
    @@@@..............@@@@
    @@@@..............@@@@
    @@@@..............@@@@
    @@@@..............@@@@
    @@@@..............@@@@
    @@@@@@@@@@@@@@@@@@@@@@
    @@@@@@@@@@@@@@@@@@@@@@
    ......................
    ......................

    left-bearing: 2


0x9d:
    ......................
    ......................
    @@@@@@@@@@@@@@@@@@@@@@
    @@@@@@@@@@@@@@@@@@@@@@
    @@@@..............@@@@
    @@@@..............@@@@
    @@@@..............@@@@
    @@@@..............@@@@
    @@@@..............@@@@
    @@@@..............@@@@
    @@@@..............@@@@
    @@@@..............@@@@
    @@@@..............@@@@
    @@@@..............@@@@
    @@@@..............@@@@
    @@@@..............@@@@
    @@@@..............@@@@
    @@@@..............@@@@
    @@@@..............@@@@
    @@@@..............@@@@
    @@@@..............@@@@
    @@@@..............@@@@
    @@@@..............@@@@
    @@@@..............@@@@
    @@@@..............@@@@
    @@@@..............@@@@
    @@@@..............@@@@
    @@@@..............@@@@
    @@@@..............@@@@
    @@@@..............@@@@
    @@@@..............@@@@
    @@@@..............@@@@
    @@@@@@@@@@@@@@@@@@@@@@
    @@@@@@@@@@@@@@@@@@@@@@
    ......................
    ......................

    left-bearing: 2


0x9e:
    ......................
    ......................
    @@@@@@@@@@@@@@@@@@@@@@
    @@@@@@@@@@@@@@@@@@@@@@
    @@@@..............@@@@
    @@@@..............@@@@
    @@@@..............@@@@
    @@@@..............@@@@
    @@@@..............@@@@
    @@@@..............@@@@
    @@@@..............@@@@
    @@@@..............@@@@
    @@@@..............@@@@
    @@@@..............@@@@
    @@@@..............@@@@
    @@@@..............@@@@
    @@@@..............@@@@
    @@@@..............@@@@
    @@@@..............@@@@
    @@@@..............@@@@
    @@@@..............@@@@
    @@@@..............@@@@
    @@@@..............@@@@
    @@@@..............@@@@
    @@@@..............@@@@
    @@@@..............@@@@
    @@@@..............@@@@
    @@@@..............@@@@
    @@@@..............@@@@
    @@@@..............@@@@
    @@@@..............@@@@
    @@@@..............@@@@
    @@@@@@@@@@@@@@@@@@@@@@
    @@@@@@@@@@@@@@@@@@@@@@
    ......................
    ......................

    left-bearing: 2


0x9f:
    ......................
    ......................
    @@@@@@@@@@@@@@@@@@@@@@
    @@@@@@@@@@@@@@@@@@@@@@
    @@@@..............@@@@
    @@@@..............@@@@
    @@@@..............@@@@
    @@@@..............@@@@
    @@@@..............@@@@
    @@@@..............@@@@
    @@@@..............@@@@
    @@@@..............@@@@
    @@@@..............@@@@
    @@@@..............@@@@
    @@@@..............@@@@
    @@@@..............@@@@
    @@@@..............@@@@
    @@@@..............@@@@
    @@@@..............@@@@
    @@@@..............@@@@
    @@@@..............@@@@
    @@@@..............@@@@
    @@@@..............@@@@
    @@@@..............@@@@
    @@@@..............@@@@
    @@@@..............@@@@
    @@@@..............@@@@
    @@@@..............@@@@
    @@@@..............@@@@
    @@@@..............@@@@
    @@@@..............@@@@
    @@@@..............@@@@
    @@@@@@@@@@@@@@@@@@@@@@
    @@@@@@@@@@@@@@@@@@@@@@
    ......................
    ......................

    left-bearing: 2


0xa0:
u+00a0:
    -

    right-bearing: 8


0xa1:
'':
    ....
    ....
    ....
    ....
    ....
    ....
    ....
    ....
    ....
    ....
    .@@.
    @@@@
    @@@@
    .@@.
    ....
    ....
    ....
    ....
    .@..
    .@..
    .@..
    .@@.
    .@@.
    .@@.
    @@@@
    @@@@
    @@@@
    @@@@
    @@@@
    @@@@
    @@@@
    @@@@
    @@@@
    @@@@
    @@@@
    .@@.

    left-bearing: 2


0xa2:
'':
    ..............
    ..............
    ..............
    ..............
    ..............
    ..............
    ...........@@.
    ...........@@.
    ..........@@..
    ..........@@..
    .....@@@@@@@..
    ...@@@@..@@@@.
    ..@@@....@@@@@
    .@@@....@@.@@@
    .@@@....@@....
    @@@....@@.....
    @@@....@@.....
    @@@....@@.....
    @@@...@@......
    @@@...@@......
    @@@..@@.......
    @@@..@@.......
    @@@.@@........
    .@@@@@........
    .@@@@@.......@
    ..@@@......@@.
    ...@@@@@.@@@..
    ..@@.@@@@@....
    ..@@..........
    .@@...........
    .@@...........
    .@@...........
    @@............
    @@............
    ..............
    ..............

    left-bearing: 2


0xa3:
'':
    ....................
    ....................
    .........@@@@@@.....
    .......@@@@@@@@@@...
    .......@@@....@@@...
    ......@@@.....@@@@..
    ......@@@.....@@@@..
    ......@@@......@@...
    ......@@@...........
    ......@@@...........
    ......@@@...........
    ......@@@...........
    ......@@@...........
    ......@@@...........
    ..@@@@@@@@@@@@......
    ..@@@@@@@@@@@@......
    ......@@@...........
    ......@@@...........
    ......@@@...........
    ......@@@...........
    ......@@@...........
    ......@@@...........
    ..@@@@@@@...........
    .@@@@@@@@.........@@
    @....@@@@@.......@@@
    @...@@@@@@@.....@@@.
    @..@@@...@@@@@@@@@..
    .@@@@......@@@@@....
    ....................
    ....................
    ....................
    ....................
    ....................
    ....................
    ....................
    ....................

    right-bearing: 2


0xa4:
'':
    ..................
    ..................
    ..................
    ..................
    ..................
    ..................
    ..................
    ..................
    @@.....@@@@.....@@
    @@@..@@@@@@@@..@@@
    .@@@@@@@..@@@@@@@.
    ..@@@@......@@@@..
    ...@@........@@...
    ..@@@........@@@..
    ..@@..........@@..
    ..@@..........@@..
    ..@@@........@@@..
    ...@@........@@...
    ..@@@@......@@@@..
    .@@@@@@@..@@@@@@@.
    @@@..@@@@@@@@..@@@
    @@.....@@@@.....@@
    ..................
    ..................
    ..................
    ..................
    ..................
    ..................
    ..................
    ..................
    ..................
    ..................
    ..................
    ..................
    ..................
    ..................

    left-bearing: 2


0xa5:
'':
    ................
    ................
    @@@@@@@...@@@@@@
    .@@@@@.....@@@@.
    ..@@@.......@@..
    ..@@@.......@@..
    ..@@@.......@@..
    ...@@@.....@@...
    ...@@@.....@@...
    ...@@@.....@@...
    ....@@@...@@....
    ....@@@...@@....
    ....@@@...@@....
    .....@@@.@@.....
    .....@@@@@@.....
    ...@@@@@@@@@@@..
    .......@@@......
    .......@@@......
    .......@@@......
    ...@@@@@@@@@@@..
    .......@@@......
    .......@@@......
    .......@@@......
    .......@@@......
    .......@@@......
    .......@@@......
    ......@@@@@.....
    .....@@@@@@@....
    ................
    ................
    ................
    ................
    ................
    ................
    ................
    ................

    right-bearing: 2


0xa6:
'':
    ..
    ..
    @@
    @@
    @@
    @@
    @@
    @@
    @@
    @@
    @@
    @@
    ..
    ..
    ..
    ..
    ..
    ..
    @@
    @@
    @@
    @@
    @@
    @@
    @@
    @@
    @@
    @@
    ..
    ..
    ..
    ..
    ..
    ..
    ..
    ..

    left-bearing: 2


0xa7:
'':
    .....@@@@@@.....
    ...@@....@@@@...
    ...@......@@@...
    ..@@......@@@@..
    ..@@@.....@@@@..
    ...@@@.....@@...
    ...@@@@.........
    ....@@@@........
    .....@@@@.......
    ...@@@@@@@......
    .@@....@@@@.....
    .@......@@@@....
    @........@@@@...
    @.........@@@@..
    @@.........@@@@.
    @@@.........@@@.
    .@@@.........@@@
    .@@@@.........@@
    ..@@@@........@@
    ...@@@@.......@@
    ....@@@@......@.
    .....@@@@....@@.
    ......@@@@@@@...
    .......@@@@.....
    ........@@@@....
    .........@@@@...
    ...@@.....@@@...
    ..@@@@.....@@@..
    ..@@@@......@@..
    ...@@@......@...
    ...@@@@....@@...
    .....@@@@@@.....
    ................
    ................
    ................
    ................

    left-bearing: 2


0xa8:
'':
    ..........
    ..........
    ..........
    ..........
    .@@....@@.
    @@@@..@@@@
    @@@@..@@@@
    .@@....@@.
    ..........
    ..........
    ..........
    ..........
    ..........
    ..........
    ..........
    ..........
    ..........
    ..........
    ..........
    ..........
    ..........
    ..........
    ..........
    ..........
    ..........
    ..........
    ..........
    ..........
    ..........
    ..........
    ..........
    ..........
    ..........
    ..........
    ..........
    ..........



0xa9:
'':
    ..........................
    ..........................
    .........@@@@@@@@.........
    ......@@@@@@@@@@@@@@......
    .....@@@@........@@@@.....
    ....@@@............@@@....
    ...@@................@@...
    ..@@..................@@..
    .@@@.......@@@@@@.....@@@.
    .@@......@@@...@@@.....@@.
    .@@.....@@.....@@@.....@@.
    @@.....@@.......@@......@@
    @@.....@@...............@@
    @@....@@................@@
    @@....@@................@@
    @@....@@................@@
    @@....@@................@@
    @@.....@@...............@@
    @@.....@@.......@@......@@
    @@......@@.....@@......@@.
    .@@......@@@..@@@......@@.
    .@@@.......@@@@.......@@@.
    ..@@..................@@..
    ...@@................@@...
    ....@@@............@@@....
    .....@@@@........@@@@.....
    ......@@@@@@@@@@@@@@......
    .........@@@@@@@@.........
    ..........................
    ..........................
    ..........................
    ..........................
    ..........................
    ..........................
    ..........................
    ..........................

    left-bearing: 2


0xaa:
'':
    ..........
    ..........
    ..@@@@....
    .@@@.@@...
    @@....@@..
    @@....@@..
    ......@@..
    ....@@@@..
    ..@@..@@..
    .@@...@@..
    @@....@@..
    @@....@@@.
    @@@@@@@@@.
    .@@@@...@@
    ..........
    ..........
    @@@@@@@@@@
    @@@@@@@@@@
    ..........
    ..........
    ..........
    ..........
    ..........
    ..........
    ..........
    ..........
    ..........
    ..........
    ..........
    ..........
    ..........
    ..........
    ..........
    ..........
    ..........
    ..........



0xab:
'':
    ................
    ................
    ................
    ................
    ................
    ................
    ................
    ................
    ................
    ................
    ................
    ................
    ......@@......@@
    .....@@@.....@@@
    ....@@@.....@@@.
    ...@@@.....@@@..
    ..@@@.....@@@...
    .@@@.....@@@....
    @@@.....@@@.....
    @@@.....@@@.....
    .@@@.....@@@....
    ..@@@.....@@@...
    ...@@@.....@@@..
    ....@@@.....@@@.
    .....@@@.....@@@
    ......@@......@@
    ................
    ................
    ................
    ................
    ................
    ................
    ................
    ................
    ................
    ................

    left-bearing: 2


0xac:
'':
    ..................
    ..................
    ..................
    ..................
    ..................
    ..................
    ..................
    ..................
    ..................
    ..................
    ..................
    ..................
    @@@@@@@@@@@@@@@@@@
    @@@@@@@@@@@@@@@@@@
    ................@@
    ................@@
    ................@@
    ................@@
    ................@@
    ................@@
    ................@@
    ................@@
    ..................
    ..................
    ..................
    ..................
    ..................
    ..................
    ..................
    ..................
    ..................
    ..................
    ..................
    ..................
    ..................
    ..................

    left-bearing: 2


0xad:
u+00ad:
    ..........
    ..........
    ..........
    ..........
    ..........
    ..........
    ..........
    ..........
    ..........
    ..........
    ..........
    ..........
    ..........
    ..........
    ..........
    ..........
    ..........
    ..........
    @@@@@@@@@@
    @@@@@@@@@@
    ..........
    ..........
    ..........
    ..........
    ..........
    ..........
    ..........
    ..........
    ..........
    ..........
    ..........
    ..........
    ..........
    ..........
    ..........
    ..........

    left-bearing: 2


0xae:
'':
    ..........................
    ..........................
    .........@@@@@@@@.........
    ......@@@@@@@@@@@@@@......
    .....@@@@........@@@@.....
    ....@@@............@@@....
    ...@@................@@...
    ..@@..................@@..
    .@@@..@@@@@@@@@.......@@@.
    .@@....@@@....@@@......@@.
    .@@.....@@......@@.....@@.
    @@......@@......@@......@@
    @@......@@......@@......@@
    @@......@@......@@......@@
    @@......@@....@@@.......@@
    @@......@@@@@@@.........@@
    @@......@@...@@.........@@
    @@......@@....@@........@@
    @@......@@.....@@.......@@
    .@@.....@@......@@.....@@.
    .@@....@@@@......@@....@@.
    .@@@..@@@@@@....@@@@..@@@.
    ..@@..................@@..
    ...@@................@@...
    ....@@@............@@@....
    .....@@@@........@@@@.....
    ......@@@@@@@@@@@@@@......
    .........@@@@@@@@.........
    ..........................
    ..........................
    ..........................
    ..........................
    ..........................
    ..........................
    ..........................
    ..........................

    left-bearing: 2


0xaf:
'':
    ..........
    ..........
    @@@@@@@@@@
    @@@@@@@@@@
    @@@@@@@@@@
    ..........
    ..........
    ..........
    ..........
    ..........
    ..........
    ..........
    ..........
    ..........
    ..........
    ..........
    ..........
    ..........
    ..........
    ..........
    ..........
    ..........
    ..........
    ..........
    ..........
    ..........
    ..........
    ..........
    ..........
    ..........
    ..........
    ..........
    ..........
    ..........
    ..........
    ..........



0xb0:
'':
    ..........
    ..........
    ...@@@@...
    .@@@@@@@@.
    .@@....@@.
    @@......@@
    @@......@@
    @@......@@
    @@......@@
    .@@....@@.
    .@@@@@@@@.
    ...@@@@...
    ..........
    ..........
    ..........
    ..........
    ..........
    ..........
    ..........
    ..........
    ..........
    ..........
    ..........
    ..........
    ..........
    ..........
    ..........
    ..........
    ..........
    ..........
    ..........
    ..........
    ..........
    ..........
    ..........
    ..........

    left-bearing: 2


0xb1:
'':
    ...............
    ...............
    ...............
    ...............
    ...............
    ...............
    ...............
    ...............
    ...............
    ...............
    ......@@@......
    ......@@@......
    ......@@@......
    ......@@@......
    ......@@@......
    ......@@@......
    @@@@@@@@@@@@@@@
    @@@@@@@@@@@@@@@
    ......@@@......
    ......@@@......
    ......@@@......
    ......@@@......
    ......@@@......
    ......@@@......
    ...............
    ...............
    @@@@@@@@@@@@@@@
    @@@@@@@@@@@@@@@
    ...............
    ...............
    ...............
    ...............
    ...............
    ...............
    ...............
    ...............

    left-bearing: 2


0xb2:
'':
    ..........
    ..........
    ..@@@@@...
    .@@@@@@@@.
    @@.....@@.
    @.......@@
    ........@@
    ........@@
    .......@@.
    ......@@..
    ......@@..
    .....@@...
    ....@@....
    ...@@.....
    ..@@......
    .@@......@
    @@@@@@@@@@
    @@@@@@@@@.
    ..........
    ..........
    ..........
    ..........
    ..........
    ..........
    ..........
    ..........
    ..........
    ..........
    ..........
    ..........
    ..........
    ..........
    ..........
    ..........
    ..........
    ..........

    right-bearing: 1


0xb3:
'':
    ..........
    ..........
    ..@@@@@@..
    .@.....@@.
    @.......@@
    ........@@
    ........@@
    .......@@.
    ...@@@@@..
    ...@@@@@..
    .......@@.
    ........@@
    ........@@
    ........@@
    @.......@@
    @@......@@
    .@@....@@.
    ..@@@@@@..
    ..........
    ..........
    ..........
    ..........
    ..........
    ..........
    ..........
    ..........
    ..........
    ..........
    ..........
    ..........
    ..........
    ..........
    ..........
    ..........
    ..........
    ..........

    right-bearing: 1


0xb4:
'':
    ........
    ........
    .....@@@
    ....@@@@
    ...@@@@.
    ..@@@...
    .@@.....
    @@......
    ........
    ........
    ........
    ........
    ........
    ........
    ........
    ........
    ........
    ........
    ........
    ........
    ........
    ........
    ........
    ........
    ........
    ........
    ........
    ........
    ........
    ........
    ........
    ........
    ........
    ........
    ........
    ........



0xb5:
'':
    ..................
    ..................
    ..................
    ..................
    ..................
    ..................
    ..................
    ..................
    ..................
    ..................
    @@@@@.....@@@@@...
    ..@@@.......@@@...
    ..@@@.......@@@...
    ..@@@.......@@@...
    ..@@@.......@@@...
    ..@@@.......@@@...
    ..@@@.......@@@...
    ..@@@.......@@@...
    ..@@@.......@@@...
    ..@@@.......@@@...
    ..@@@.......@@@...
    ..@@@.......@@@...
    ..@@@.......@@@...
    ..@@@.......@@@...
    ..@@@@.....@@@@...
    ..@@@@@...@@@@@...
    ..@@@@@@@@@.@@@...
    ..@@.@@@@@..@@@@@@
    ..@@..............
    ..@@..............
    ..@@..............
    ..@@..............
    ..@@@.............
    ..@@@@............
    ..@@@@............
    ...@@@............

    left-bearing: -2
    right-bearing: 4


0xb6:
'':
    ..............
    ..............
    .....@@@@@@@@@
    ...@@@@@@@@@@.
    ..@@@@@@..@@..
    .@@@@@@@..@@..
    .@@@@@@@..@@..
    @@@@@@@@..@@..
    @@@@@@@@..@@..
    @@@@@@@@..@@..
    @@@@@@@@..@@..
    @@@@@@@@..@@..
    @@@@@@@@..@@..
    @@@@@@@@..@@..
    @@@@@@@@..@@..
    .@@@@@@@..@@..
    .@@@@@@@..@@..
    ...@@@@@..@@..
    ......@@..@@..
    ......@@..@@..
    ......@@..@@..
    ......@@..@@..
    ......@@..@@..
    ......@@..@@..
    ......@@..@@..
    ......@@..@@..
    ......@@..@@..
    ......@@..@@..
    ......@@..@@..
    ......@@..@@..
    ......@@..@@..
    ......@@..@@..
    ......@@..@@..
    ......@@..@@..
    ......@@..@@..
    ......@@..@@..

    left-bearing: 2
    right-bearing: -2


0xb7:
'':
    ........
    ........
    ........
    ........
    ........
    ........
    ........
    ........
    ........
    ........
    ........
    ........
    ...@@...
    .@@@@@@.
    .@@@@@@.
    @@@@@@@@
    @@@@@@@@
    @@@@@@@@
    @@@@@@@@
    .@@@@@@.
    .@@@@@@.
    ...@@...
    ........
    ........
    ........
    ........
    ........
    ........
    ........
    ........
    ........
    ........
    ........
    ........
    ........
    ........

    left-bearing: 2


0xb8:
'':
    ........
    ........
    ........
    ........
    ........
    ........
    ........
    ........
    ........
    ........
    ........
    ........
    ........
    ........
    ........
    ........
    ........
    ........
    ........
    ........
    ........
    ........
    ........
    ........
    ........
    ........
    .....@@.
    ....@@..
    ....@@..
    ....@@@.
    .....@@@
    ......@@
    @.....@@
    @@...@@@
    .@@@@@@.
    ..@@@@..

    left-bearing: 2


0xb9:
'':
    ......
    ......
    ..@@..
    ..@@..
    .@@@..
    @@@@..
    ..@@..
    ..@@..
    ..@@..
    ..@@..
    ..@@..
    ..@@..
    ..@@..
    ..@@..
    ..@@..
    ..@@..
    ..@@..
    @@@@@@
    ......
    ......
    ......
    ......
    ......
    ......
    ......
    ......
    ......
    ......
    ......
    ......
    ......
    ......
    ......
    ......
    ......
    ......

    right-bearing: 4


0xba:
'':
    ..........
    ..........
    ...@@@@...
    .@@@..@@@.
    .@@....@@.
    @@......@@
    @@......@@
    @@......@@
    @@......@@
    @@......@@
    @@......@@
    .@@....@@.
    .@@@..@@@.
    ...@@@@...
    ..........
    ..........
    @@@@@@@@@@
    @@@@@@@@@@
    ..........
    ..........
    ..........
    ..........
    ..........
    ..........
    ..........
    ..........
    ..........
    ..........
    ..........
    ..........
    ..........
    ..........
    ..........
    ..........
    ..........
    ..........

    right-bearing: 2


0xbb:
'':
    ................
    ................
    ................
    ................
    ................
    ................
    ................
    ................
    ................
    ................
    ................
    ................
    @@......@@......
    @@@.....@@@.....
    .@@@.....@@@....
    ..@@@.....@@@...
    ...@@@.....@@@..
    ....@@@.....@@@.
    .....@@@.....@@@
    .....@@@.....@@@
    ....@@@.....@@@.
    ...@@@.....@@@..
    ..@@@.....@@@...
    .@@@.....@@@....
    @@@.....@@@.....
    @@......@@......
    ................
    ................
    ................
    ................
    ................
    ................
    ................
    ................
    ................
    ................

    left-bearing: 2


0xbc:
'':
    ......................
    ......................
    ..@@............@@....
    ..@@............@@....
    .@@@...........@@.....
    @@@@..........@@......
    ..@@..........@@......
    ..@@.........@@.......
    ..@@.........@@.......
    ..@@........@@........
    ..@@.......@@.........
    ..@@.......@@.........
    ..@@......@@.....@@@..
    ..@@......@@....@@@@..
    ..@@.....@@.....@@@@..
    ..@@....@@.....@@.@@..
    ..@@....@@....@@..@@..
    @@@@@@.@@.....@@..@@..
    .......@@....@@...@@..
    ......@@....@@....@@..
    .....@@.....@@....@@..
    .....@@....@@.....@@..
    ....@@....@@@@@@@@@@@@
    ....@@....@@@@@@@@@@@@
    ...@@.............@@..
    ..@@..............@@..
    ..@@..............@@..
    .@@...............@@..
    ......................
    ......................
    ......................
    ......................
    ......................
    ......................
    ......................
    ......................



0xbd:
'':
    ......................
    ......................
    ..@@............@@....
    ..@@............@@....
    .@@@...........@@.....
    @@@@..........@@......
    ..@@..........@@......
    ..@@.........@@.......
    ..@@.........@@.......
    ..@@........@@........
    ..@@.......@@.........
    ..@@.......@@.........
    ..@@......@@..@@@@@...
    ..@@......@@.@@@@@@@@.
    ..@@.....@@.@@.....@@.
    ..@@....@@..@.......@@
    ..@@....@@..........@@
    @@@@@@.@@...........@@
    .......@@..........@@.
    ......@@..........@@..
    .....@@...........@@..
    .....@@..........@@...
    ....@@..........@@....
    ....@@.........@@.....
    ...@@.........@@......
    ..@@.........@@......@
    ..@@........@@@@@@@@@@
    .@@.........@@@@@@@@@.
    ......................
    ......................
    ......................
    ......................
    ......................
    ......................
    ......................
    ......................



0xbe:
'':
    ..........................
    ..........................
    ..@@@@@@............@@....
    .@.....@@...........@@....
    @.......@@.........@@.....
    ........@@........@@......
    ........@@........@@......
    .......@@........@@.......
    ...@@@@@.........@@.......
    ...@@@@@........@@........
    .......@@......@@.........
    ........@@.....@@.........
    ........@@....@@.....@@@..
    ........@@....@@....@@@@..
    @.......@@...@@.....@@@@..
    @@......@@..@@.....@@.@@..
    .@@....@@...@@....@@..@@..
    ..@@@@@@...@@.....@@..@@..
    ...........@@....@@...@@..
    ..........@@....@@....@@..
    .........@@.....@@....@@..
    .........@@....@@.....@@..
    ........@@....@@@@@@@@@@@@
    ........@@....@@@@@@@@@@@@
    .......@@.............@@..
    ......@@..............@@..
    ......@@..............@@..
    .....@@...............@@..
    ..........................
    ..........................
    ..........................
    ..........................
    ..........................
    ..........................
    ..........................
    ..........................



0xbf:
'':
    ............
    ............
    ............
    ............
    ............
    ............
    ............
    ............
    ............
    ............
    ......@@....
    .....@@@@...
    .....@@@@...
    ......@@....
    ............
    ............
    ......@.....
    ......@.....
    .....@@.....
    .....@@.....
    ....@@@.....
    ....@@......
    ...@@@......
    ...@@@......
    ..@@@.......
    .@@@@.......
    .@@@........
    @@@.........
    @@@......@@.
    @@.......@@@
    @@........@@
    @@........@@
    @@@.......@@
    .@@......@@@
    .@@@@..@@@@.
    ...@@@@@@...

    left-bearing: 2


0xc0:
'':
    ..........................
    ..........................
    ........@@@...............
    ........@@@@..............
    .........@@@@.............
    ...........@@@............
    .............@@...........
    ..............@@..........
    ..........................
    ..........................
    ............@@............
    ............@@............
    ...........@@@@...........
    ..........@@@@@@..........
    ..........@@.@@@..........
    .........@@...@@@.........
    ........@@.....@@@........
    ........@@.....@@@........
    .......@@.......@@@.......
    ......@@@@@@@@@@@@@@......
    ......@@.........@@@......
    .....@@...........@@@.....
    ....@@.............@@@....
    ....@@.............@@@....
    ...@@...............@@@...
    ..@@@..............@@@@@..
    .@@@@@............@@@@@@@.
    @@@@@@@..........@@@@@@@@@
    ..........................
    ..........................
    ..........................
    ..........................
    ..........................
    ..........................
    ..........................
    ..........................

    left-bearing: 2


0xc1:
'':
    ..........................
    ..........................
    ...............@@@........
    ..............@@@@........
    .............@@@@.........
    ............@@@...........
    ...........@@.............
    ..........@@..............
    ..........................
    ..........................
    ............@@............
    ............@@............
    ...........@@@@...........
    ..........@@@@@@..........
    ..........@@.@@@..........
    .........@@...@@@.........
    ........@@.....@@@........
    ........@@.....@@@........
    .......@@.......@@@.......
    ......@@@@@@@@@@@@@@......
    ......@@.........@@@......
    .....@@...........@@@.....
    ....@@.............@@@....
    ....@@.............@@@....
    ...@@...............@@@...
    ..@@@..............@@@@@..
    .@@@@@............@@@@@@@.
    @@@@@@@..........@@@@@@@@@
    ..........................
    ..........................
    ..........................
    ..........................
    ..........................
    ..........................
    ..........................
    ..........................

    left-bearing: 2


0xc2:
'':
    ..........................
    ..........................
    ............@@............
    ...........@@@@...........
    ..........@@@@@@..........
    .........@@@..@@@.........
    ........@@......@@........
    .......@@........@@.......
    ..........................
    ..........................
    ............@@............
    ............@@............
    ...........@@@@...........
    ..........@@@@@@..........
    ..........@@.@@@..........
    .........@@...@@@.........
    ........@@.....@@@........
    ........@@.....@@@........
    .......@@.......@@@.......
    ......@@@@@@@@@@@@@@......
    ......@@.........@@@......
    .....@@...........@@@.....
    ....@@.............@@@....
    ....@@.............@@@....
    ...@@...............@@@...
    ..@@@..............@@@@@..
    .@@@@@............@@@@@@@.
    @@@@@@@..........@@@@@@@@@
    ..........................
    ..........................
    ..........................
    ..........................
    ..........................
    ..........................
    ..........................
    ..........................

    left-bearing: 2


0xc3:
'':
    ..........................
    ..........................
    ..........@@@.............
    .........@@@@@....@@......
    ........@@..@@@..@@.......
    .......@@....@@@@@........
    ..............@@@.........
    ..........................
    ..........................
    ..........................
    ............@@............
    ............@@............
    ...........@@@@...........
    ..........@@@@@@..........
    ..........@@.@@@..........
    .........@@...@@@.........
    ........@@.....@@@........
    ........@@.....@@@........
    .......@@.......@@@.......
    ......@@@@@@@@@@@@@@......
    ......@@.........@@@......
    .....@@...........@@@.....
    ....@@.............@@@....
    ....@@.............@@@....
    ...@@...............@@@...
    ..@@@..............@@@@@..
    .@@@@@............@@@@@@@.
    @@@@@@@..........@@@@@@@@@
    ..........................
    ..........................
    ..........................
    ..........................
    ..........................
    ..........................
    ..........................
    ..........................

    left-bearing: 2


0xc4:
'':
    ..........................
    ..........................
    ..........................
    ........@@......@@........
    .......@@@@....@@@@.......
    .......@@@@....@@@@.......
    ........@@......@@........
    ..........................
    ..........................
    ..........................
    ............@@............
    ............@@............
    ...........@@@@...........
    ..........@@@@@@..........
    ..........@@.@@@..........
    .........@@...@@@.........
    ........@@.....@@@........
    ........@@.....@@@........
    .......@@.......@@@.......
    ......@@@@@@@@@@@@@@......
    ......@@.........@@@......
    .....@@...........@@@.....
    ....@@.............@@@....
    ....@@.............@@@....
    ...@@...............@@@...
    ..@@@..............@@@@@..
    .@@@@@............@@@@@@@.
    @@@@@@@..........@@@@@@@@@
    ..........................
    ..........................
    ..........................
    ..........................
    ..........................
    ..........................
    ..........................
    ..........................

    left-bearing: 2


0xc5:
'':
    ..........................
    ..........................
    ...........@@@@...........
    ..........@@@@@@..........
    .........@@....@@.........
    .........@@....@@.........
    .........@@....@@.........
    ..........@@@@@@..........
    ...........@@@@...........
    ..........................
    ............@@............
    ............@@............
    ...........@@@@...........
    ..........@@@@@@..........
    ..........@@.@@@..........
    .........@@...@@@.........
    ........@@.....@@@........
    ........@@.....@@@........
    .......@@.......@@@.......
    ......@@@@@@@@@@@@@@......
    ......@@.........@@@......
    .....@@...........@@@.....
    ....@@.............@@@....
    ....@@.............@@@....
    ...@@...............@@@...
    ..@@@..............@@@@@..
    .@@@@@............@@@@@@@.
    @@@@@@@..........@@@@@@@@@
    ..........................
    ..........................
    ..........................
    ..........................
    ..........................
    ..........................
    ..........................
    ..........................

    left-bearing: 2


0xc6:
'':
    .............................
    .............................
    ..............@@@@@@@@@@@@@@.
    .............@@@@@@......@@@.
    .............@@@@@........@@.
    ............@@.@@@.........@.
    ............@@.@@@...........
    ...........@@..@@@...........
    ...........@@..@@@...........
    ..........@@...@@@...........
    ..........@@...@@@...........
    .........@@....@@@...........
    .........@@....@@@.......@...
    ........@@.....@@@......@@...
    ........@@.....@@@@@@@@@@@...
    .......@@......@@@......@@...
    .......@@......@@@.......@...
    ......@@.......@@@...........
    ......@@@@@@@@@@@@...........
    .....@@........@@@...........
    .....@@........@@@...........
    ....@@.........@@@...........
    ....@@.........@@@...........
    ...@@..........@@@..........@
    ...@@..........@@@.........@@
    ..@@@..........@@@........@@@
    .@@@@@........@@@@@......@@@.
    @@@@@@@......@@@@@@@@@@@@@@@.
    .............................
    .............................
    .............................
    .............................
    .............................
    .............................
    .............................
    .............................

    left-bearing: 2


0xc7:
'':
    ......................
    ......................
    ........@@@@@@@@.....@
    ......@@@......@@@...@
    ....@@@..........@@@@@
    ...@@@............@@@@
    ..@@@..............@@@
    ..@@@...............@@
    .@@@................@@
    .@@@.................@
    @@@...................
    @@@...................
    @@@...................
    @@@...................
    @@@...................
    @@@...................
    @@@...................
    @@@...................
    @@@...................
    @@@...................
    .@@@..................
    .@@@..................
    ..@@@...............@@
    ..@@@..............@@@
    ...@@@@...........@@@.
    ....@@@@@........@@@..
    ......@@@@@....@@@....
    ........@@@@@@@@......
    ...........@@.........
    ...........@@@........
    ............@@@.......
    .............@@.......
    .......@.....@@.......
    .......@@...@@@.......
    ........@@@@@@........
    .........@@@@.........

    left-bearing: 2
    right-bearing: -2


0xc8:
'':
    ..................
    ..................
    ....@@@...........
    ....@@@@..........
    .....@@@@.........
    .......@@@........
    .........@@.......
    ..........@@......
    ..................
    ..................
    @@@@@@@@@@@@@@@@@.
    .@@@@@........@@@.
    ..@@@..........@@.
    ..@@@...........@.
    ..@@@.............
    ..@@@.............
    ..@@@........@....
    ..@@@.......@@....
    ..@@@@@@@@@@@@....
    ..@@@.......@@....
    ..@@@........@....
    ..@@@.............
    ..@@@.............
    ..@@@............@
    ..@@@...........@@
    ..@@@..........@@@
    .@@@@@........@@@.
    @@@@@@@@@@@@@@@@@.
    ..................
    ..................
    ..................
    ..................
    ..................
    ..................
    ..................
    ..................

    left-bearing: 2


0xc9:
'':
    ..................
    ..................
    ...........@@@....
    ..........@@@@....
    .........@@@@.....
    ........@@@.......
    .......@@.........
    ......@@..........
    ..................
    ..................
    @@@@@@@@@@@@@@@@@.
    .@@@@@........@@@.
    ..@@@..........@@.
    ..@@@...........@.
    ..@@@.............
    ..@@@.............
    ..@@@........@....
    ..@@@.......@@....
    ..@@@@@@@@@@@@....
    ..@@@.......@@....
    ..@@@........@....
    ..@@@.............
    ..@@@.............
    ..@@@............@
    ..@@@...........@@
    ..@@@..........@@@
    .@@@@@........@@@.
    @@@@@@@@@@@@@@@@@.
    ..................
    ..................
    ..................
    ..................
    ..................
    ..................
    ..................
    ..................

    left-bearing: 2


0xca:
'':
    ..................
    ..................
    ........@@........
    .......@@@@.......
    ......@@@@@@......
    .....@@@..@@@.....
    ....@@......@@....
    ...@@........@@...
    ..................
    ..................
    @@@@@@@@@@@@@@@@@.
    .@@@@@........@@@.
    ..@@@..........@@.
    ..@@@...........@.
    ..@@@.............
    ..@@@.............
    ..@@@........@....
    ..@@@.......@@....
    ..@@@@@@@@@@@@....
    ..@@@.......@@....
    ..@@@........@....
    ..@@@.............
    ..@@@.............
    ..@@@............@
    ..@@@...........@@
    ..@@@..........@@@
    .@@@@@........@@@.
    @@@@@@@@@@@@@@@@@.
    ..................
    ..................
    ..................
    ..................
    ..................
    ..................
    ..................
    ..................

    left-bearing: 2


0xcb:
'':
    ..................
    ..................
    ..................
    ....@@......@@....
    ...@@@@....@@@@...
    ...@@@@....@@@@...
    ....@@......@@....
    ..................
    ..................
    ..................
    @@@@@@@@@@@@@@@@@.
    .@@@@@........@@@.
    ..@@@..........@@.
    ..@@@...........@.
    ..@@@.............
    ..@@@.............
    ..@@@........@....
    ..@@@.......@@....
    ..@@@@@@@@@@@@....
    ..@@@.......@@....
    ..@@@........@....
    ..@@@.............
    ..@@@.............
    ..@@@............@
    ..@@@...........@@
    ..@@@..........@@@
    .@@@@@........@@@.
    @@@@@@@@@@@@@@@@@.
    ..................
    ..................
    ..................
    ..................
    ..................
    ..................
    ..................
    ..................

    left-bearing: 2


0xcc:
'':
    ........
    ........
    @@@.....
    @@@@....
    .@@@@...
    ...@@@..
    .....@@.
    ......@@
    ........
    ........
    .@@@@@@@
    ..@@@@@.
    ...@@@..
    ...@@@..
    ...@@@..
    ...@@@..
    ...@@@..
    ...@@@..
    ...@@@..
    ...@@@..
    ...@@@..
    ...@@@..
    ...@@@..
    ...@@@..
    ...@@@..
    ...@@@..
    ..@@@@@.
    .@@@@@@@
    ........
    ........
    ........
    ........
    ........
    ........
    ........
    ........

    left-bearing: 2


0xcd:
'':
    ........
    ........
    .....@@@
    ....@@@@
    ...@@@@.
    ..@@@...
    .@@.....
    @@......
    ........
    ........
    @@@@@@@.
    @@@@@@..
    ..@@@...
    ..@@@...
    ..@@@...
    ..@@@...
    ..@@@...
    ..@@@...
    ..@@@...
    ..@@@...
    ..@@@...
    ..@@@...
    ..@@@...
    ..@@@...
    ..@@@...
    ..@@@...
    .@@@@@..
    @@@@@@@.
    ........
    ........
    ........
    ........
    ........
    ........
    ........
    ........

    left-bearing: 2


0xce:
'':
    ..........
    ..........
    ....@@....
    ...@@@@...
    ..@@@@@@..
    .@@@..@@@.
    @@......@@
    @........@
    ..........
    ..........
    .@@@@@@@..
    ..@@@@@@..
    ...@@@....
    ...@@@....
    ...@@@....
    ...@@@....
    ...@@@....
    ...@@@....
    ...@@@....
    ...@@@....
    ...@@@....
    ...@@@....
    ...@@@....
    ...@@@....
    ...@@@....
    ...@@@....
    ..@@@@@...
    .@@@@@@@..
    ..........
    ..........
    ..........
    ..........
    ..........
    ..........
    ..........
    ..........

    left-bearing: 2
    right-bearing: -2


0xcf:
'':
    ..........
    ..........
    .@@....@@.
    @@@@..@@@@
    @@@@..@@@@
    .@@....@@.
    ..........
    ..........
    ..........
    ..........
    .@@@@@@@..
    ..@@@@@@..
    ...@@@....
    ...@@@....
    ...@@@....
    ...@@@....
    ...@@@....
    ...@@@....
    ...@@@....
    ...@@@....
    ...@@@....
    ...@@@....
    ...@@@....
    ...@@@....
    ...@@@....
    ...@@@....
    ..@@@@@@..
    .@@@@@@@..
    ..........
    ..........
    ..........
    ..........
    ..........
    ..........
    ..........
    ..........

    left-bearing: 2
    right-bearing: -2


0xd0:
'':
    ........................
    ........................
    ..@@@@@@@@@@@@@@@.......
    ...@@@@@......@@@@@.....
    ....@@@.........@@@@....
    ....@@@...........@@@...
    ....@@@............@@@..
    ....@@@............@@@..
    ....@@@.............@@@.
    ....@@@.............@@@.
    ....@@@..............@@@
    ....@@@..............@@@
    ....@@@..............@@@
    ....@@@..............@@@
    @@@@@@@@@@@@.........@@@
    @@@@@@@@@@@@.........@@@
    ....@@@..............@@@
    ....@@@..............@@@
    ....@@@..............@@@
    ....@@@..............@@@
    ....@@@.............@@@.
    ....@@@.............@@@.
    ....@@@............@@@..
    ....@@@............@@@..
    ....@@@...........@@@...
    ....@@@.........@@@@....
    ...@@@@@......@@@@@.....
    ..@@@@@@@@@@@@@@@.......
    ........................
    ........................
    ........................
    ........................
    ........................
    ........................
    ........................
    ........................

    right-bearing: 2


0xd1:
'':
    ......................
    ......................
    ........@@@...........
    .......@@@@@....@@....
    ......@@..@@@..@@.....
    .....@@....@@@@@......
    ............@@@.......
    ......................
    ......................
    ......................
    @@@@.............@@@@@
    .@@@@.............@@@.
    ..@@@@.............@..
    ..@@@@@............@..
    ..@.@@@@...........@..
    ..@...@@@@.........@..
    ..@....@@@@........@..
    ..@.....@@@@.......@..
    ..@......@@@@......@..
    ..@.......@@@@.....@..
    ..@.........@@@@...@..
    ..@..........@@@@..@..
    ..@...........@@@@.@..
    ..@............@@@@@..
    ..@.............@@@@..
    ..@..............@@@..
    .@@@..............@@..
    @@@@@..............@..
    ......................
    ......................
    ......................
    ......................
    ......................
    ......................
    ......................
    ......................

    left-bearing: 2


0xd2:
'':
    ........................
    ........................
    ........@@@.............
    ........@@@@............
    .........@@@@...........
    ...........@@@..........
    .............@@.........
    ..............@@........
    ........................
    ........................
    .......@@@@@@@@@@.......
    .....@@@........@@@.....
    ...@@@............@@@...
    ..@@@..............@@@..
    .@@@................@@@.
    .@@@................@@@.
    @@@..................@@@
    @@@..................@@@
    @@@..................@@@
    @@@..................@@@
    @@@..................@@@
    @@@..................@@@
    .@@@................@@@.
    .@@@................@@@.
    ..@@@..............@@@..
    ...@@@............@@@...
    .....@@@........@@@.....
    .......@@@@@@@@@@.......
    ........................
    ........................
    ........................
    ........................
    ........................
    ........................
    ........................
    ........................

    left-bearing: 2


0xd3:
'':
    ........................
    ........................
    .............@@@........
    ............@@@@........
    ...........@@@@.........
    ..........@@@...........
    .........@@.............
    ........@@..............
    ........................
    ........................
    .......@@@@@@@@@@.......
    .....@@@........@@@.....
    ...@@@............@@@...
    ..@@@..............@@@..
    .@@@................@@@.
    .@@@................@@@.
    @@@..................@@@
    @@@..................@@@
    @@@..................@@@
    @@@..................@@@
    @@@..................@@@
    @@@..................@@@
    .@@@................@@@.
    .@@@................@@@.
    ..@@@..............@@@..
    ...@@@............@@@...
    .....@@@........@@@.....
    .......@@@@@@@@@@.......
    ........................
    ........................
    ........................
    ........................
    ........................
    ........................
    ........................
    ........................

    left-bearing: 2


0xd4:
'':
    ........................
    ........................
    ...........@@...........
    ..........@@@@..........
    .........@@@@@@.........
    ........@@@..@@@........
    .......@@......@@.......
    ......@@........@@......
    ........................
    ........................
    .......@@@@@@@@@@.......
    .....@@@........@@@.....
    ...@@@............@@@...
    ..@@@..............@@@..
    .@@@................@@@.
    .@@@................@@@.
    @@@..................@@@
    @@@..................@@@
    @@@..................@@@
    @@@..................@@@
    @@@..................@@@
    @@@..................@@@
    .@@@................@@@.
    .@@@................@@@.
    ..@@@..............@@@..
    ...@@@............@@@...
    .....@@@........@@@.....
    .......@@@@@@@@@@.......
    ........................
    ........................
    ........................
    ........................
    ........................
    ........................
    ........................
    ........................

    left-bearing: 2


0xd5:
'':
    ........................
    ........................
    .........@@@............
    ........@@@@@....@@.....
    .......@@..@@@..@@......
    ......@@....@@@@@.......
    .............@@@........
    ........................
    ........................
    ........................
    .......@@@@@@@@@@.......
    .....@@@........@@@.....
    ...@@@............@@@...
    ..@@@..............@@@..
    .@@@................@@@.
    .@@@................@@@.
    @@@..................@@@
    @@@..................@@@
    @@@..................@@@
    @@@..................@@@
    @@@..................@@@
    @@@..................@@@
    .@@@................@@@.
    .@@@................@@@.
    ..@@@..............@@@..
    ...@@@............@@@...
    .....@@@........@@@.....
    .......@@@@@@@@@@.......
    ........................
    ........................
    ........................
    ........................
    ........................
    ........................
    ........................
    ........................

    left-bearing: 2


0xd6:
'':
    ........................
    ........................
    ........................
    .......@@......@@.......
    ......@@@@....@@@@......
    ......@@@@....@@@@......
    .......@@......@@.......
    ........................
    ........................
    ........................
    .......@@@@@@@@@@.......
    .....@@@........@@@.....
    ...@@@............@@@...
    ..@@@..............@@@..
    .@@@................@@@.
    .@@@................@@@.
    @@@..................@@@
    @@@..................@@@
    @@@..................@@@
    @@@..................@@@
    @@@..................@@@
    @@@..................@@@
    .@@@................@@@.
    .@@@................@@@.
    ..@@@..............@@@..
    ...@@@............@@@...
    .....@@@........@@@.....
    .......@@@@@@@@@@.......
    ........................
    ........................
    ........................
    ........................
    ........................
    ........................
    ........................
    ........................

    left-bearing: 2


0xd7:
'':
    ................
    ................
    ................
    ................
    ................
    ................
    ................
    ................
    ................
    ................
    ................
    ................
    @@@..........@@@
    .@@@........@@@.
    ..@@@......@@@..
    ...@@@....@@@...
    ....@@@..@@@....
    .....@@@@@@.....
    ......@@@@......
    ......@@@@......
    .....@@@@@@.....
    ....@@@..@@@....
    ...@@@....@@@...
    ..@@@......@@@..
    .@@@........@@@.
    @@@..........@@@
    ................
    ................
    ................
    ................
    ................
    ................
    ................
    ................
    ................
    ................

    left-bearing: 2


0xd8:
'':
    .....................@@.
    ....................@@..
    ........@@@@@@@@...@@...
    ......@@@@....@@@@.@@...
    ....@@@..........@@@....
    ...@@@............@@@...
    ..@@@............@@@@@..
    ..@@@...........@@.@@@..
    .@@@...........@@...@@@.
    .@@@...........@@...@@@.
    @@@...........@@.....@@@
    @@@..........@@......@@@
    @@@..........@@......@@@
    @@@.........@@.......@@@
    @@@........@@........@@@
    @@@........@@........@@@
    @@@.......@@.........@@@
    @@@......@@..........@@@
    @@@......@@..........@@@
    @@@.....@@...........@@@
    .@@@...@@...........@@@.
    .@@@...@@...........@@@.
    ..@@@.@@...........@@@..
    ..@@@@@............@@@..
    ...@@@............@@@...
    ....@@@..........@@@....
    ...@@.@@@@....@@@@......
    ...@@...@@@@@@@@........
    ..@@....................
    .@@.....................
    ........................
    ........................
    ........................
    ........................
    ........................
    ........................

    left-bearing: 2


0xd9:
'':
    ......................
    ......................
    ......@@@.............
    ......@@@@............
    .......@@@@...........
    .........@@@..........
    ...........@@.........
    ............@@........
    ......................
    ......................
    @@@@@@@..........@@@@@
    .@@@@@............@@@.
    ..@@@..............@..
    ..@@@..............@..
    ..@@@..............@..
    ..@@@..............@..
    ..@@@..............@..
    ..@@@..............@..
    ..@@@..............@..
    ..@@@..............@..
    ..@@@..............@..
    ..@@@..............@..
    ..@@@@............@@..
    ...@@@............@...
    ...@@@@..........@@...
    ....@@@@@......@@@....
    .....@@@@@@@@@@@@.....
    .......@@@@@@@@.......
    ......................
    ......................
    ......................
    ......................
    ......................
    ......................
    ......................
    ......................

    left-bearing: 2


0xda:
'':
    ......................
    ......................
    .............@@@......
    ............@@@@......
    ...........@@@@.......
    ..........@@@.........
    .........@@...........
    ........@@............
    ......................
    ......................
    @@@@@@@..........@@@@@
    .@@@@@............@@@.
    ..@@@..............@..
    ..@@@..............@..
    ..@@@..............@..
    ..@@@..............@..
    ..@@@..............@..
    ..@@@..............@..
    ..@@@..............@..
    ..@@@..............@..
    ..@@@..............@..
    ..@@@..............@..
    ..@@@@............@@..
    ...@@@............@...
    ...@@@@..........@@...
    ....@@@@@......@@@....
    .....@@@@@@@@@@@@.....
    .......@@@@@@@@.......
    ......................
    ......................
    ......................
    ......................
    ......................
    ......................
    ......................
    ......................

    left-bearing: 2


0xdb:
'':
    ......................
    ......................
    ...........@@.........
    ..........@@@@........
    .........@@@@@@.......
    ........@@@..@@@......
    .......@@......@@.....
    ......@@........@@....
    ......................
    ......................
    @@@@@@@..........@@@@@
    .@@@@@............@@@.
    ..@@@..............@..
    ..@@@..............@..
    ..@@@..............@..
    ..@@@..............@..
    ..@@@..............@..
    ..@@@..............@..
    ..@@@..............@..
    ..@@@..............@..
    ..@@@..............@..
    ..@@@..............@..
    ..@@@@............@@..
    ...@@@............@...
    ...@@@@..........@@...
    ....@@@@@......@@@....
    .....@@@@@@@@@@@@.....
    .......@@@@@@@@.......
    ......................
    ......................
    ......................
    ......................
    ......................
    ......................
    ......................
    ......................

    left-bearing: 2


0xdc:
'':
    ......................
    ......................
    ......................
    ......@@......@@......
    .....@@@@....@@@@.....
    .....@@@@....@@@@.....
    ......@@......@@......
    ......................
    ......................
    ......................
    @@@@@@@..........@@@@@
    .@@@@@............@@@.
    ..@@@..............@..
    ..@@@..............@..
    ..@@@..............@..
    ..@@@..............@..
    ..@@@..............@..
    ..@@@..............@..
    ..@@@..............@..
    ..@@@..............@..
    ..@@@..............@..
    ..@@@..............@..
    ..@@@@............@@..
    ...@@@............@...
    ...@@@@..........@@...
    ....@@@@@......@@@....
    .....@@@@@@@@@@@@.....
    .......@@@@@@@@.......
    ......................
    ......................
    ......................
    ......................
    ......................
    ......................
    ......................
    ......................

    left-bearing: 2


0xdd:
'':
    ........................
    ........................
    ...............@@@......
    ..............@@@@......
    .............@@@@.......
    ............@@@.........
    ...........@@...........
    ..........@@............
    ........................
    ........................
    @@@@@@@..........@@@@@@.
    .@@@@@............@@@@..
    ..@@@..............@@...
    ...@@@............@@....
    ....@@@..........@@.....
    .....@@@........@@......
    ......@@@......@@.......
    .......@@@....@@........
    ........@@@..@@.........
    .........@@@@@..........
    ..........@@@...........
    ..........@@@...........
    ..........@@@...........
    ..........@@@...........
    ..........@@@...........
    ..........@@@...........
    .........@@@@@..........
    ........@@@@@@@.........
    ........................
    ........................
    ........................
    ........................
    ........................
    ........................
    ........................
    ........................



0xde:
'':
    ..................
    ..................
    @@@@@@@...........
    .@@@@@............
    ..@@@.............
    ..@@@.............
    ..@@@.............
    ..@@@.............
    ..@@@@@@@@@@@@....
    ..@@@......@@@@@..
    ..@@@........@@@@.
    ..@@@.........@@@.
    ..@@@..........@@@
    ..@@@..........@@@
    ..@@@..........@@@
    ..@@@..........@@@
    ..@@@..........@@@
    ..@@@..........@@@
    ..@@@.........@@@.
    ..@@@........@@@@.
    ..@@@......@@@@@..
    ..@@@@@@@@@@@@....
    ..@@@.............
    ..@@@.............
    ..@@@.............
    ..@@@.............
    .@@@@@............
    @@@@@@@...........
    ..................
    ..................
    ..................
    ..................
    ..................
    ..................
    ..................
    ..................

    left-bearing: 2
    right-bearing: -2


0xdf:
'':
    ................
    ................
    ......@@@@@.....
    ....@@@...@@@...
    ...@@@......@@..
    ...@@.......@@..
    ..@@@........@@.
    ..@@@........@@.
    ..@@@........@@.
    ..@@@........@@.
    ..@@@.......@@..
    ..@@@......@@@..
    ..@@@....@@@....
    ..@@@..@@@......
    ..@@@....@@.....
    ..@@@.....@@@...
    ..@@@......@@@..
    ..@@@.......@@@.
    ..@@@........@@.
    ..@@@........@@@
    ..@@@.........@@
    ..@@@.........@@
    ..@@@.........@@
    ..@@@.@@@.....@@
    ..@@@.@@@.....@@
    ..@@@..@@....@@.
    .@@@@...@@...@@.
    @@@@@....@@@@@..
    ................
    ................
    ................
    ................
    ................
    ................
    ................
    ................

    right-bearing: 2


0xe0:
'':
    ..............
    ..............
    ..@@@.........
    ..@@@@........
    ...@@@@.......
    .....@@@......
    .......@@.....
    ........@@....
    ..............
    ..............
    ....@@@@......
    ..@@@@.@@@....
    .@@@....@@@...
    .@@@.....@@...
    .@@......@@@..
    .........@@@..
    ......@@@@@@..
    ....@@@..@@@..
    ..@@@....@@@..
    .@@@.....@@@..
    .@@......@@@..
    @@@......@@@..
    @@@......@@@..
    @@@......@@@..
    @@@@....@@@@..
    @@@@@@@@@@@@..
    .@@@@@@...@@..
    ..@@@@.....@@@
    ..............
    ..............
    ..............
    ..............
    ..............
    ..............
    ..............
    ..............

    left-bearing: 2


0xe1:
'':
    ..............
    ..............
    .......@@@....
    ......@@@@....
    .....@@@@.....
    ....@@@.......
    ...@@.........
    ..@@..........
    ..............
    ..............
    ....@@@@......
    ..@@@@.@@@....
    .@@@....@@@...
    .@@@.....@@...
    .@@......@@@..
    .........@@@..
    ......@@@@@@..
    ....@@@..@@@..
    ..@@@....@@@..
    .@@@.....@@@..
    .@@......@@@..
    @@@......@@@..
    @@@......@@@..
    @@@......@@@..
    @@@@....@@@@..
    @@@@@@@@@@@@..
    .@@@@@@...@@..
    ..@@@@.....@@@
    ..............
    ..............
    ..............
    ..............
    ..............
    ..............
    ..............
    ..............

    left-bearing: 2


0xe2:
'':
    ..............
    ..............
    ......@@......
    .....@@@@.....
    ....@@@@@@....
    ...@@@..@@@...
    ..@@......@@..
    .@@........@@.
    ..............
    ..............
    ....@@@@......
    ..@@@@.@@@....
    .@@@....@@@...
    .@@@.....@@...
    .@@......@@@..
    .........@@@..
    ......@@@@@@..
    ....@@@..@@@..
    ..@@@....@@@..
    .@@@.....@@@..
    .@@......@@@..
    @@@......@@@..
    @@@......@@@..
    @@@......@@@..
    @@@@....@@@@..
    @@@@@@@@@@@@..
    .@@@@@@...@@..
    ..@@@@.....@@@
    ..............
    ..............
    ..............
    ..............
    ..............
    ..............
    ..............
    ..............

    left-bearing: 2


0xe3:
'':
    ..............
    ..............
    ...@@@........
    ..@@@@@....@@.
    .@@..@@@..@@..
    @@....@@@@@...
    .......@@@....
    ..............
    ..............
    ..............
    ....@@@@......
    ..@@@@.@@@....
    .@@@....@@@...
    .@@@.....@@...
    .@@......@@@..
    .........@@@..
    ......@@@@@@..
    ....@@@..@@@..
    ..@@@....@@@..
    .@@@.....@@@..
    .@@......@@@..
    @@@......@@@..
    @@@......@@@..
    @@@......@@@..
    @@@@....@@@@..
    @@@@@@@@@@@@..
    .@@@@@@...@@..
    ..@@@@.....@@@
    ..............
    ..............
    ..............
    ..............
    ..............
    ..............
    ..............
    ..............

    left-bearing: 2


0xe4:
'':
    ..............
    ..............
    ..............
    ..@@.....@@...
    .@@@@...@@@@..
    .@@@@...@@@@..
    ..@@.....@@...
    ..............
    ..............
    ..............
    ....@@@@......
    ..@@@@.@@@....
    .@@@....@@@...
    .@@@.....@@...
    .@@......@@@..
    .........@@@..
    ......@@@@@@..
    ....@@@..@@@..
    ..@@@....@@@..
    .@@@.....@@@..
    .@@......@@@..
    @@@......@@@..
    @@@......@@@..
    @@@......@@@..
    @@@@....@@@@..
    @@@@@@@@@@@@..
    .@@@@@@...@@..
    ..@@@@.....@@@
    ..............
    ..............
    ..............
    ..............
    ..............
    ..............
    ..............
    ..............

    left-bearing: 2


0xe5:
'':
    ..............
    ..............
    ....@@@@......
    ...@@@@@@.....
    ..@@....@@....
    ..@@....@@....
    ..@@....@@....
    ...@@@@@@.....
    ....@@@@......
    ..............
    ....@@@@......
    ..@@@@.@@@....
    .@@@....@@@...
    .@@@.....@@...
    .@@......@@@..
    .........@@@..
    ......@@@@@@..
    ....@@@..@@@..
    ..@@@....@@@..
    .@@@.....@@@..
    .@@......@@@..
    @@@......@@@..
    @@@......@@@..
    @@@......@@@..
    @@@@....@@@@..
    @@@@@@@@@@@@..
    .@@@@@@...@@..
    ..@@@@.....@@@
    ..............
    ..............
    ..............
    ..............
    ..............
    ..............
    ..............
    ..............

    left-bearing: 2


0xe6:
'':
    ......................
    ......................
    ......................
    ......................
    ......................
    ......................
    ......................
    ......................
    ......................
    ......................
    ....@@@@.....@@@@@@...
    ..@@@@.@@...@@@..@@@@.
    .@@@....@@@@@......@@.
    .@@@....@@@@.......@@@
    .@@.....@@@@........@@
    ........@@@.........@@
    ......@@@@@.........@@
    ....@@@.@@@@@@@@@@@@@@
    ..@@@...@@@...........
    .@@@....@@@...........
    .@@.....@@@...........
    @@@.....@@@...........
    @@@.....@@@...........
    @@@.....@@@@..........
    @@@@....@@@@........@@
    .@@@@@@@@.@@@......@@.
    .@@@@@@....@@@@@.@@@..
    ...@@@.......@@@@@@...
    ......................
    ......................
    ......................
    ......................
    ......................
    ......................
    ......................
    ......................

    right-bearing: 2


0xe7:
'':
    ..............
    ..............
    ..............
    ..............
    ..............
    ..............
    ..............
    ..............
    ..............
    ..............
    .....@@@@@@...
    ...@@@@..@@@@.
    ..@@@.....@@@@
    .@@@.......@@@
    .@@@..........
    @@@...........
    @@@...........
    @@@...........
    @@@...........
    @@@...........
    @@@...........
    @@@...........
    @@@...........
    .@@@..........
    .@@@.........@
    ..@@@......@@.
    ...@@@@@.@@@..
    .....@@@@@....
    .......@@.....
    .......@@@....
    ........@@@...
    .........@@...
    ...@.....@@...
    ...@@...@@@...
    ....@@@@@@....
    .....@@@@.....

    right-bearing: 2


0xe8:
'':
    ..............
    ..............
    ..@@@.........
    ..@@@@........
    ...@@@@.......
    .....@@@......
    .......@@.....
    ........@@....
    ..............
    ..............
    .....@@@@@@...
    ...@@@@..@@@@.
    ..@@@......@@.
    .@@@.......@@@
    .@@@........@@
    @@@.........@@
    @@@.........@@
    @@@@@@@@@@@@@@
    @@@...........
    @@@...........
    @@@...........
    @@@...........
    @@@...........
    .@@@..........
    .@@@........@@
    ..@@@......@@.
    ...@@@@@.@@@..
    .....@@@@@@...
    ..............
    ..............
    ..............
    ..............
    ..............
    ..............
    ..............
    ..............

    right-bearing: 2


0xe9:
'':
    ..............
    ..............
    .........@@@..
    ........@@@@..
    .......@@@@...
    ......@@@.....
    .....@@.......
    ....@@........
    ..............
    ..............
    .....@@@@@@...
    ...@@@@..@@@@.
    ..@@@......@@.
    .@@@.......@@@
    .@@@........@@
    @@@.........@@
    @@@.........@@
    @@@@@@@@@@@@@@
    @@@...........
    @@@...........
    @@@...........
    @@@...........
    @@@...........
    .@@@..........
    .@@@........@@
    ..@@@......@@.
    ...@@@@@.@@@..
    .....@@@@@@...
    ..............
    ..............
    ..............
    ..............
    ..............
    ..............
    ..............
    ..............

    right-bearing: 2


0xea:
'':
    ..............
    ..............
    .......@@.....
    ......@@@@....
    .....@@@@@@...
    ....@@@..@@@..
    ...@@......@@.
    ..@@........@@
    ..............
    ..............
    .....@@@@@@...
    ...@@@@..@@@@.
    ..@@@......@@.
    .@@@.......@@@
    .@@@........@@
    @@@.........@@
    @@@.........@@
    @@@@@@@@@@@@@@
    @@@...........
    @@@...........
    @@@...........
    @@@...........
    @@@...........
    .@@@..........
    .@@@........@@
    ..@@@......@@.
    ...@@@@@.@@@..
    .....@@@@@@...
    ..............
    ..............
    ..............
    ..............
    ..............
    ..............
    ..............
    ..............

    right-bearing: 2


0xeb:
'':
    ..............
    ..............
    ..............
    ...@@.....@@..
    ..@@@@...@@@@.
    ..@@@@...@@@@.
    ...@@.....@@..
    ..............
    ..............
    ..............
    .....@@@@@@...
    ...@@@@..@@@@.
    ..@@@......@@.
    .@@@.......@@@
    .@@@........@@
    @@@.........@@
    @@@.........@@
    @@@@@@@@@@@@@@
    @@@...........
    @@@...........
    @@@...........
    @@@...........
    @@@...........
    .@@@..........
    .@@@........@@
    ..@@@......@@.
    ...@@@@@.@@@..
    .....@@@@@@...
    ..............
    ..............
    ..............
    ..............
    ..............
    ..............
    ..............
    ..............

    right-bearing: 2


0xec:
'':
    ........
    ........
    @@@.....
    @@@@....
    .@@@@...
    ...@@@..
    .....@@.
    ......@@
    ........
    ........
    .@@@@@..
    ...@@@..
    ...@@@..
    ...@@@..
    ...@@@..
    ...@@@..
    ...@@@..
    ...@@@..
    ...@@@..
    ...@@@..
    ...@@@..
    ...@@@..
    ...@@@..
    ...@@@..
    ...@@@..
    ...@@@..
    ...@@@..
    .@@@@@@@
    ........
    ........
    ........
    ........
    ........
    ........
    ........
    ........

    right-bearing: 2


0xed:
'':
    ........
    ........
    .....@@@
    ....@@@@
    ...@@@@.
    ..@@@...
    .@@.....
    @@......
    ........
    ........
    @@@@@...
    ..@@@...
    ..@@@...
    ..@@@...
    ..@@@...
    ..@@@...
    ..@@@...
    ..@@@...
    ..@@@...
    ..@@@...
    ..@@@...
    ..@@@...
    ..@@@...
    ..@@@...
    ..@@@...
    ..@@@...
    ..@@@...
    @@@@@@@.
    ........
    ........
    ........
    ........
    ........
    ........
    ........
    ........

    right-bearing: 2


0xee:
'':
    ..........
    ..........
    ....@@....
    ...@@@@...
    ..@@@@@@..
    .@@@..@@@.
    @@......@@
    @........@
    ..........
    ..........
    ..@@@@@...
    ....@@@...
    ....@@@...
    ....@@@...
    ....@@@...
    ....@@@...
    ....@@@...
    ....@@@...
    ....@@@...
    ....@@@...
    ....@@@...
    ....@@@...
    ....@@@...
    ....@@@...
    ....@@@...
    ....@@@...
    ....@@@...
    ..@@@@@@@.
    ..........
    ..........
    ..........
    ..........
    ..........
    ..........
    ..........
    ..........

    left-bearing: -1
    right-bearing: 2


0xef:
'':
    ..........
    ..........
    ..........
    ..........
    .@@....@@.
    @@@@..@@@@
    @@@@..@@@@
    .@@....@@.
    ..........
    ..........
    .@@@@@....
    ...@@@....
    ...@@@....
    ...@@@....
    ...@@@....
    ...@@@....
    ...@@@....
    ...@@@....
    ...@@@....
    ...@@@....
    ...@@@....
    ...@@@....
    ...@@@....
    ...@@@....
    ...@@@....
    ...@@@....
    ...@@@....
    .@@@@@@@..
    ..........
    ..........
    ..........
    ..........
    ..........
    ..........
    ..........
    ..........



0xf0:
'':
    ................
    ................
    ..@@@...........
    ..@@@@..........
    ....@@@...@@@...
    .....@@@@@@@....
    .....@@@@.......
    ...@@@@@@@......
    ..@@....@@@.....
    .........@@@....
    .....@@@@@@@@...
    ...@@@@..@@@@@..
    ..@@@......@@@..
    .@@@........@@@.
    .@@@........@@@.
    @@@..........@@@
    @@@..........@@@
    @@@..........@@@
    @@@..........@@@
    @@@..........@@@
    @@@..........@@@
    @@@..........@@@
    @@@..........@@@
    .@@@........@@@.
    .@@@........@@@.
    ..@@@......@@@..
    ...@@@@..@@@@...
    .....@@@@@@.....
    ................
    ................
    ................
    ................
    ................
    ................
    ................
    ................

    right-bearing: 2


0xf1:
'':
    .................
    .................
    .....@@@.........
    ....@@@@@....@@..
    ...@@..@@@..@@...
    ..@@....@@@@@....
    .........@@@.....
    .................
    .................
    .................
    @@@@@...@@@......
    ..@@@..@@@@@@....
    ..@@@.@@.@@@@@...
    ..@@@@@....@@@...
    ..@@@@.....@@@@..
    ..@@@@......@@@..
    ..@@@.......@@@..
    ..@@@.......@@@..
    ..@@@.......@@@..
    ..@@@.......@@@..
    ..@@@.......@@@..
    ..@@@.......@@@..
    ..@@@.......@@@..
    ..@@@.......@@@..
    ..@@@.......@@@..
    ..@@@.......@@@..
    ..@@@.......@@@..
    @@@@@@@...@@@@@@@
    .................
    .................
    .................
    .................
    .................
    .................
    .................
    .................

    right-bearing: 2


0xf2:
'':
    ................
    ................
    ....@@@.........
    ....@@@@........
    .....@@@@.......
    .......@@@......
    .........@@.....
    ..........@@....
    ................
    ................
    .....@@@@@@.....
    ...@@@@..@@@@...
    ..@@@......@@@..
    .@@@........@@@.
    .@@@........@@@.
    @@@..........@@@
    @@@..........@@@
    @@@..........@@@
    @@@..........@@@
    @@@..........@@@
    @@@..........@@@
    @@@..........@@@
    @@@..........@@@
    .@@@........@@@.
    .@@@........@@@.
    ..@@@......@@@..
    ...@@@@..@@@@...
    .....@@@@@@.....
    ................
    ................
    ................
    ................
    ................
    ................
    ................
    ................

    right-bearing: 2


0xf3:
'':
    ................
    ................
    .........@@@....
    ........@@@@....
    .......@@@@.....
    ......@@@.......
    .....@@.........
    ....@@..........
    ................
    ................
    .....@@@@@@.....
    ...@@@@..@@@@...
    ..@@@......@@@..
    .@@@........@@@.
    .@@@........@@@.
    @@@..........@@@
    @@@..........@@@
    @@@..........@@@
    @@@..........@@@
    @@@..........@@@
    @@@..........@@@
    @@@..........@@@
    @@@..........@@@
    .@@@........@@@.
    .@@@........@@@.
    ..@@@......@@@..
    ...@@@@..@@@@...
    .....@@@@@@.....
    ................
    ................
    ................
    ................
    ................
    ................
    ................
    ................

    right-bearing: 2


0xf4:
'':
    ................
    ................
    .......@@.......
    ......@@@@......
    .....@@@@@@.....
    ....@@@..@@@....
    ...@@......@@...
    ..@@........@@..
    ................
    ................
    .....@@@@@@.....
    ...@@@@..@@@@...
    ..@@@......@@@..
    .@@@........@@@.
    .@@@........@@@.
    @@@..........@@@
    @@@..........@@@
    @@@..........@@@
    @@@..........@@@
    @@@..........@@@
    @@@..........@@@
    @@@..........@@@
    @@@..........@@@
    .@@@........@@@.
    .@@@........@@@.
    ..@@@......@@@..
    ...@@@@..@@@@...
    .....@@@@@@.....
    ................
    ................
    ................
    ................
    ................
    ................
    ................
    ................

    right-bearing: 2


0xf5:
'':
    ................
    ................
    .....@@@........
    ....@@@@@....@@.
    ...@@..@@@..@@..
    ..@@....@@@@@...
    .........@@@....
    ................
    ................
    ................
    .....@@@@@@.....
    ...@@@@..@@@@...
    ..@@@......@@@..
    .@@@........@@@.
    .@@@........@@@.
    @@@..........@@@
    @@@..........@@@
    @@@..........@@@
    @@@..........@@@
    @@@..........@@@
    @@@..........@@@
    @@@..........@@@
    @@@..........@@@
    .@@@........@@@.
    .@@@........@@@.
    ..@@@......@@@..
    ...@@@@..@@@@...
    .....@@@@@@.....
    ................
    ................
    ................
    ................
    ................
    ................
    ................
    ................

    right-bearing: 2


0xf6:
'':
    ................
    ................
    ................
    ................
    ...@@......@@...
    ..@@@@....@@@@..
    ..@@@@....@@@@..
    ...@@......@@...
    ................
    ................
    .....@@@@@@.....
    ...@@@@..@@@@...
    ..@@@......@@@..
    .@@@........@@@.
    .@@@........@@@.
    @@@..........@@@
    @@@..........@@@
    @@@..........@@@
    @@@..........@@@
    @@@..........@@@
    @@@..........@@@
    @@@..........@@@
    @@@..........@@@
    .@@@........@@@.
    .@@@........@@@.
    ..@@@......@@@..
    ...@@@@..@@@@...
    .....@@@@@@.....
    ................
    ................
    ................
    ................
    ................
    ................
    ................
    ................

    right-bearing: 2


0xf7:
'':
    ................
    ................
    ................
    ................
    ................
    ................
    ................
    ................
    ................
    ................
    ................
    ................
    .......@@.......
    ......@@@@......
    ......@@@@......
    .......@@.......
    ................
    ................
    @@@@@@@@@@@@@@@@
    @@@@@@@@@@@@@@@@
    ................
    ................
    .......@@.......
    ......@@@@......
    ......@@@@......
    .......@@.......
    ................
    ................
    ................
    ................
    ................
    ................
    ................
    ................
    ................
    ................

    left-bearing: 2


0xf8:
'':
    ................
    ................
    ................
    ................
    ................
    ................
    ................
    ................
    ...............@
    ..............@@
    .....@@@@@@..@@.
    ...@@@@..@@@@@..
    ..@@@......@@@..
    .@@@.......@@@@.
    .@@@......@@@@@.
    @@@......@@..@@@
    @@@......@@..@@@
    @@@.....@@...@@@
    @@@....@@....@@@
    @@@....@@....@@@
    @@@...@@.....@@@
    @@@..@@......@@@
    @@@..@@......@@@
    .@@@@@......@@@.
    .@@@@.......@@@.
    ..@@@......@@@..
    ..@@@@@..@@@@...
    .@@..@@@@@@.....
    @@..............
    @...............
    ................
    ................
    ................
    ................
    ................
    ................

    right-bearing: 2


0xf9:
'':
    .................
    .................
    ..@@@............
    ..@@@@...........
    ...@@@@..........
    .....@@@.........
    .......@@........
    ........@@.......
    .................
    .................
    @@@@@.....@@@@@..
    ..@@@.......@@@..
    ..@@@.......@@@..
    ..@@@.......@@@..
    ..@@@.......@@@..
    ..@@@.......@@@..
    ..@@@.......@@@..
    ..@@@.......@@@..
    ..@@@.......@@@..
    ..@@@.......@@@..
    ..@@@.......@@@..
    ..@@@.......@@@..
    ..@@@.......@@@..
    ..@@@.......@@@..
    ..@@@@.....@@@@..
    ...@@@@...@@@@@..
    ...@@@@@@@@.@@@..
    .....@@@@@..@@@@@
    .................
    .................
    .................
    .................
    .................
    .................
    .................
    .................

    left-bearing: -2
    right-bearing: 4


0xfa:
'':
    .................
    .................
    ..........@@@....
    .........@@@@....
    ........@@@@.....
    .......@@@.......
    ......@@.........
    .....@@..........
    .................
    .................
    @@@@@.....@@@@@..
    ..@@@.......@@@..
    ..@@@.......@@@..
    ..@@@.......@@@..
    ..@@@.......@@@..
    ..@@@.......@@@..
    ..@@@.......@@@..
    ..@@@.......@@@..
    ..@@@.......@@@..
    ..@@@.......@@@..
    ..@@@.......@@@..
    ..@@@.......@@@..
    ..@@@.......@@@..
    ..@@@.......@@@..
    ..@@@@.....@@@@..
    ...@@@@...@@@@@..
    ...@@@@@@@@.@@@..
    .....@@@@@..@@@@@
    .................
    .................
    .................
    .................
    .................
    .................
    .................
    .................

    left-bearing: -2
    right-bearing: 4


0xfb:
'':
    .................
    .................
    .......@@........
    ......@@@@.......
    .....@@@@@@......
    ....@@@..@@@.....
    ...@@@.....@@....
    ..@@........@@...
    .................
    .................
    @@@@@.....@@@@@..
    ..@@@.......@@@..
    ..@@@.......@@@..
    ..@@@.......@@@..
    ..@@@.......@@@..
    ..@@@.......@@@..
    ..@@@.......@@@..
    ..@@@.......@@@..
    ..@@@.......@@@..
    ..@@@.......@@@..
    ..@@@.......@@@..
    ..@@@.......@@@..
    ..@@@.......@@@..
    ..@@@.......@@@..
    ..@@@@.....@@@@..
    ...@@@@...@@@@@..
    ...@@@@@@@@.@@@..
    .....@@@@@..@@@@@
    .................
    .................
    .................
    .................
    .................
    .................
    .................
    .................

    left-bearing: -2
    right-bearing: 4


0xfc:
'':
    .................
    .................
    .................
    ....@@.....@@....
    ...@@@@...@@@@...
    ...@@@@...@@@@...
    ....@@.....@@....
    .................
    .................
    .................
    @@@@@.....@@@@@..
    ..@@@.......@@@..
    ..@@@.......@@@..
    ..@@@.......@@@..
    ..@@@.......@@@..
    ..@@@.......@@@..
    ..@@@.......@@@..
    ..@@@.......@@@..
    ..@@@.......@@@..
    ..@@@.......@@@..
    ..@@@.......@@@..
    ..@@@.......@@@..
    ..@@@.......@@@..
    ..@@@.......@@@..
    ..@@@@.....@@@@..
    ...@@@@...@@@@@..
    ...@@@@@@@@.@@@..
    .....@@@@@..@@@@@
    .................
    .................
    .................
    .................
    .................
    .................
    .................
    .................

    left-bearing: -2
    right-bearing: 4


0xfd:
'':
    ................
    ................
    ............@@@.
    ...........@@@@.
    ..........@@@@..
    .........@@@....
    ........@@......
    .......@@.......
    ................
    ................
    @@@@@......@@@@@
    .@@@........@@@.
    .@@@........@@@.
    ..@@@.......@@@.
    ..@@@.......@@..
    ..@@@.......@@..
    ...@@@......@@..
    ...@@@.....@@...
    ....@@@....@@...
    ....@@@....@@...
    ....@@@...@@....
    .....@@@..@@....
    .....@@@..@@....
    ......@@.@@.....
    ......@@@@@.....
    .......@@@@.....
    .......@@@......
    ........@@......
    .......@@.......
    .......@@.......
    ......@@........
    ......@@........
    .....@@.........
    @@@@@@@.........
    @@@@@@..........
    .@@@............

    left-bearing: -2
    right-bearing: 4


0xfe:
'':
    ................
    ................
    @@@@@...........
    ..@@@...........
    ..@@@...........
    ..@@@...........
    ..@@@...........
    ..@@@...........
    ..@@@...........
    ..@@@...........
    ..@@@...@@@.....
    ..@@@.@@@@@@@...
    ..@@@@@....@@@..
    ..@@@@......@@@.
    ..@@@........@@.
    ..@@@........@@@
    ..@@@........@@@
    ..@@@........@@@
    ..@@@........@@@
    ..@@@........@@@
    ..@@@........@@@
    ..@@@........@@@
    ..@@@........@@@
    ..@@@.......@@@.
    ..@@@.......@@@.
    ..@@@@.....@@@..
    ..@@@@@@.@@@@...
    ..@@@.@@@@@.....
    ..@@@...........
    ..@@@...........
    ..@@@...........
    ..@@@...........
    ..@@@...........
    ..@@@...........
    ..@@@...........
    @@@@@@@.........

    right-bearing: 2


0xff:
'':
    ................
    ................
    ................
    ....@@.....@@...
    ...@@@@...@@@@..
    ...@@@@...@@@@..
    ....@@.....@@...
    ................
    ................
    ................
    @@@@@......@@@@@
    .@@@........@@@.
    .@@@........@@@.
    ..@@@.......@@@.
    ..@@@.......@@..
    ..@@@.......@@..
    ...@@@......@@..
    ...@@@.....@@...
    ....@@@....@@...
    ....@@@....@@...
    ....@@@...@@....
    .....@@@..@@....
    .....@@@..@@....
    ......@@.@@.....
    ......@@@@@.....
    .......@@@@.....
    .......@@@......
    ........@@......
    .......@@.......
    .......@@.......
    ......@@........
    ......@@........
    .....@@.........
    @@@@@@@.........
    @@@@@@..........
    .@@@............

    left-bearing: -2
    right-bearing: 4


"default":
    ......................
    ......................
    @@@@@@@@@@@@@@@@@@@@@@
    @@@@@@@@@@@@@@@@@@@@@@
    @@@@..............@@@@
    @@@@..............@@@@
    @@@@..............@@@@
    @@@@..............@@@@
    @@@@..............@@@@
    @@@@..............@@@@
    @@@@..............@@@@
    @@@@..............@@@@
    @@@@..............@@@@
    @@@@..............@@@@
    @@@@..............@@@@
    @@@@..............@@@@
    @@@@..............@@@@
    @@@@..............@@@@
    @@@@..............@@@@
    @@@@..............@@@@
    @@@@..............@@@@
    @@@@..............@@@@
    @@@@..............@@@@
    @@@@..............@@@@
    @@@@..............@@@@
    @@@@..............@@@@
    @@@@..............@@@@
    @@@@..............@@@@
    @@@@..............@@@@
    @@@@..............@@@@
    @@@@..............@@@@
    @@@@..............@@@@
    @@@@@@@@@@@@@@@@@@@@@@
    @@@@@@@@@@@@@@@@@@@@@@
    ......................
    ......................

    left-bearing: 2


